<?xml version="1.0" encoding="UTF-8"?>
<svg width="24px" height="24px" viewBox="0 0 24 24" version="1.1" xmlns="http://www.w3.org/2000/svg" xmlns:xlink="http://www.w3.org/1999/xlink">
    <title>54F6D269-73D4-4EDB-9FED-2FFE957C65EB@1x</title>
    <g id="Symbols" stroke="none" stroke-width="1" fill="none" fill-rule="evenodd">
        <g id="icon/account" fill="#FFFFFF" fill-rule="nonzero">
            <path d="M12,0 C5.373,0 0,5.373 0,12 C0,18.627 5.373,24 12,24 C18.627,24 24,18.627 24,12 C24,5.373 18.627,0 12,0 Z M12,22 C8.877,22 6.086,20.559 4.251,18.31 C4.51,17.722 5.034,17.315 6.118,17.064 C8.362,16.546 10.577,16.083 9.511,14.119 C6.356,8.299 8.612,5 12,5 C15.322,5 17.634,8.177 14.489,14.119 C13.454,16.071 15.589,16.535 17.882,17.064 C18.964,17.314 19.492,17.719 19.753,18.305 C17.917,20.558 15.125,22 12,22 Z" id="Shape"></path>
        </g>
    </g>
</svg>