<?xml version="1.0" encoding="UTF-8"?>
<svg width="64px" height="41px" viewBox="0 0 64 41" version="1.1" xmlns="http://www.w3.org/2000/svg" xmlns:xlink="http://www.w3.org/1999/xlink">
    <defs>
        <polygon id="path-1" points="63.7407033 40.1461182 0 40.1461182 0 0.308616931 63.7407033 0.308616931"></polygon>
        <polygon id="path-3" points="0 40.3456291 63.7408557 40.3456291 63.7408557 0.507975439 0 0.507975439"></polygon>
    </defs>
    <g id="Symbols" stroke="none" stroke-width="1" fill="none" fill-rule="evenodd">
        <g id="Payment-Form_1440" transform="translate(-240.000000, -54.000000)">
            <g id="Page-1" transform="translate(240.000000, 54.000000)">
                <g id="Group-3" transform="translate(0.000000, 0.199511)">
                    <mask id="mask-2" fill="white">
                        <use xlink:href="#path-1"></use>
                    </mask>
                    <g id="Clip-2"></g>
                    <path d="M63.7407033,38.0220836 C63.7407033,39.1954682 62.7888845,40.1462706 61.6154999,40.1462706 L2.12403456,40.1462706 C0.950649915,40.1462706 -0.000152453613,39.1954682 -0.000152453613,38.0220836 L-0.000152453613,2.43280394 C-0.000152453613,1.2594193 0.950649915,0.308616931 2.12403456,0.308616931 L61.6154999,0.308616931 C62.7888845,0.308616931 63.7407033,1.2594193 63.7407033,2.43280394 L63.7407033,38.0220836 Z" id="Fill-1" fill="#0078A9" mask="url(#mask-2)"></path>
                </g>
                <path d="M19.7762827,19.4993761 L19.7762827,18.86212 L19.4713755,19.4993761 L16.8324034,19.4993761 L16.5010709,18.8153676 L16.5010709,19.4993761 L11.5681802,19.4993761 L10.9852992,18.1196709 L9.9968916,18.1196709 L9.37945447,19.4993761 L6.82179102,19.4993761 L6.82179102,15.3348516 L8.69646228,11.0925757 L12.2867449,11.0925757 L12.7908582,12.2944184 L12.7908582,11.1017229 L17.181014,11.1017229 L18.1465536,13.1252906 L19.0912578,11.0925757 L32.951324,11.0925757 C32.951324,11.0925757 33.6775114,11.0829203 34.1562157,11.4193346 L34.1531666,11.0925757 L37.6448625,11.0925757 L37.6448625,11.5519693 C37.6448625,11.5519693 38.2729714,11.0925757 39.2014139,11.0925757 L45.3630808,11.0925757 L45.903783,12.3122046 L45.903783,11.0925757 L49.8523315,11.0925757 L50.5688635,12.3122046 L50.5688635,11.0925757 L54.3431068,11.0925757 L54.3431068,19.507507 L50.4657032,19.507507 L49.5545388,18.0403951 L49.5545388,19.4993761 L44.7344637,19.4993761 L44.0565533,17.9966917 L43.1118491,17.9966917 L42.4766257,19.4993761 L39.5596799,19.4993761 C39.5596799,19.4993761 38.4716693,19.4856553 37.6560425,18.901758 L37.6560425,19.4993761 L31.8485762,19.4993761 L31.8485762,17.5362818 C31.8485762,17.2511935 31.6300593,17.2710125 31.6300593,17.2710125 L31.4176406,17.2710125 L31.4176406,19.4993761 L19.7762827,19.4993761 Z" id="Fill-4" fill="#FFFFFF"></path>
                <path d="M16.8780887,21.3216542 L24.5089002,21.3216542 L25.6106317,22.5682166 L26.7367557,21.3216542 L32.6036789,21.3216542 C32.6036789,21.3216542 33.1545446,21.335375 33.6779687,21.6143651 L33.6779687,21.3216542 L38.902554,21.3216542 C39.5657273,21.3216542 40.1221829,21.6529867 40.1221829,21.6529867 L40.1221829,21.3216542 L46.8377646,21.3216542 L46.8377646,21.6275778 C46.8377646,21.6275778 47.3159608,21.3216542 47.959315,21.3216542 L52.3342255,21.3216542 L52.3342255,21.6275778 C52.3342255,21.6275778 52.8850913,21.3216542 53.4679723,21.3216542 L56.9032603,21.3216542 L56.9032603,29.2512748 C56.9032603,29.2512748 56.4514895,29.7619944 55.517457,29.7619944 L50.9885683,29.7619944 L50.9885683,29.5099377 C50.9885683,29.5099377 50.5576328,29.7619944 49.9005577,29.7619944 L37.8704431,29.7619944 L37.8704431,27.7125096 C37.8704431,27.5112709 37.7830363,27.4741738 37.6031411,27.4741738 L37.4374748,27.4741738 L37.4374748,29.7619944 L33.6779687,29.7619944 L33.6779687,27.4884028 C33.6779687,27.4884028 33.260754,27.7125096 32.564041,27.7125096 L31.2122856,27.7125096 L31.2122856,29.7619944 L26.5782039,29.7619944 L25.5242413,28.4757941 L24.3965927,29.7619944 L16.8780887,29.7619944 L16.8780887,21.3216542 Z" id="Fill-6" fill="#FFFFFF"></path>
                <polygon id="Fill-8" fill="#0078A9" points="40.9282052 22.5871208 45.7172814 22.5871208 45.7172814 23.8712884 42.3943008 23.8712884 42.3943008 24.9908061 45.6237765 24.9908061 45.6237765 26.1225201 42.3943008 26.1225201 42.3943008 27.3004783 45.7172814 27.3004783 45.7172814 28.5531389 40.9282052 28.5531389"></polygon>
                <path d="M54.9686748,24.9116319 C56.7681356,25.0041204 56.9190647,25.9030885 56.9190647,26.8620218 C56.9190647,27.9795067 55.9997694,28.580174 55.0413444,28.580174 L51.9643223,28.580174 L51.9643223,27.30058 L54.3614012,27.30058 C54.7679442,27.30058 55.3736932,27.30058 55.3736932,26.7278626 C55.3736932,26.455987 55.2674839,26.2821898 54.8345156,26.2364538 C54.6419159,26.2090121 53.9304657,26.1693742 53.8222236,26.1673415 C52.1965599,26.1246544 51.8174586,25.3156339 51.8174586,24.3307836 C51.8174586,23.2122823 52.6036111,22.6009433 53.5630525,22.6009433 L56.6390582,22.6009433 L56.6390582,23.8795209 L54.3878265,23.8795209 C53.8760906,23.8846027 53.3231921,23.8190476 53.3231921,24.397355 C53.3231921,24.7637519 53.5960841,24.8374378 53.9421538,24.8709776 C54.0625922,24.8709776 54.8614491,24.9126482 54.9686748,24.9116319" id="Fill-10" fill="#0078A9"></path>
                <path d="M49.4531063,24.9116319 C51.2535835,25.0041204 51.4045126,25.9030885 51.4045126,26.8620218 C51.4045126,27.9795067 50.4862337,28.580174 49.5267923,28.580174 L46.4507865,28.580174 L46.4507865,27.30058 L48.8478655,27.30058 C49.2533921,27.30058 49.8601575,27.30058 49.8601575,26.7278626 C49.8601575,26.455987 49.7529318,26.2821898 49.3199635,26.2364538 C49.1273638,26.2090121 48.4148972,26.1693742 48.3086879,26.1673415 C46.6809915,26.1246544 46.3049392,25.3156339 46.3049392,24.3307836 C46.3049392,23.2122823 47.0900753,22.6009433 48.0485004,22.6009433 L51.1245061,22.6009433 L51.1245061,23.8795209 L48.8742908,23.8795209 C48.3615385,23.8846027 47.80864,23.8190476 47.80864,24.397355 C47.80864,24.7637519 48.0825484,24.8374378 48.4286181,24.8709776 C48.5480401,24.8709776 49.346897,24.9126482 49.4531063,24.9116319" id="Fill-12" fill="#0078A9"></path>
                <path d="M31.5924033,25.3126357 L29.7680417,25.3126357 L29.7680417,23.8805881 L31.5985014,23.8805881 C32.2118731,23.8805881 32.4054892,24.2734102 32.4054892,24.5661212 C32.4054892,24.9660578 32.1920542,25.3126357 31.5924033,25.3126357 L31.5924033,25.3126357 Z M28.290258,27.9932784 L26.18589,25.5032027 L28.290258,23.1726951 L28.290258,27.9932784 Z M22.691145,27.3006308 L19.3137893,27.3006308 L19.3137893,26.1226725 L22.5442813,26.1226725 L22.5442813,24.9909586 L19.3137893,24.9909586 L19.3137893,23.8714409 L22.876122,23.8795717 L24.3020715,25.5032027 L22.691145,27.3006308 Z M32.0858448,22.5999777 L26.945109,22.5999777 L25.2671029,24.4512728 L23.6429637,22.5872733 L17.8695454,22.5872733 L17.8695454,28.5532913 L23.4554458,28.5532913 L25.2142523,26.5820661 L26.9313881,28.5670121 L29.7421246,28.5670121 L29.7421246,26.5414118 L31.7123335,26.5414118 C32.4715525,26.5414118 33.8573558,26.5154947 33.8573558,24.4243393 C33.8573558,22.9323266 32.8054259,22.5999777 32.0858448,22.5999777 L32.0858448,22.5999777 Z" id="Fill-14" fill="#0078A9"></path>
                <path d="M37.8970208,25.2322418 L36.0726593,25.2322418 L36.0726593,23.8804864 L37.903119,23.8804864 C38.5154743,23.8804864 38.7090904,24.2733086 38.7090904,24.5660195 C38.7090904,24.965448 38.4966717,25.2322418 37.8970208,25.2322418 M39.1613695,25.8496789 C39.9612427,25.4507587 40.1736615,24.9176792 40.1736615,24.1980981 C40.1736615,22.9205369 39.1359605,22.6008924 38.4158713,22.6008924 L34.60758,22.6008924 L34.60758,28.5669105 L36.0726593,28.5669105 L36.0726593,26.4620343 L37.9905257,26.4620343 C38.4966717,26.4620343 38.6958778,26.9681803 38.7090904,27.4743263 L38.747712,28.5669105 L40.1736615,28.5669105 L40.1203027,27.3411835 C40.1203027,26.3817421 39.8555416,25.9289548 39.1613695,25.8496789" id="Fill-16" fill="#0078A9"></path>
                <mask id="mask-4" fill="white">
                    <use xlink:href="#path-3"></use>
                </mask>
                <g id="Clip-19"></g>
                <polygon id="Fill-18" fill="#0078A9" mask="url(#mask-4)" points="35.1944248 18.2606905 36.659504 18.2606905 36.659504 12.287558 35.1944248 12.287558"></polygon>
                <polygon id="Fill-20" fill="#0078A9" mask="url(#mask-4)" points="23.2034908 12.29452 27.9905342 12.29452 27.9905342 13.5786876 24.66857 13.5786876 24.66857 14.6982053 27.8970293 14.6982053 27.8970293 15.8299193 24.66857 15.8299193 24.66857 17.0078776 27.9905342 17.0078776 27.9905342 18.2605381 23.2034908 18.2605381"></polygon>
                <path d="M32.1492147,14.9257677 L30.3248531,14.9257677 L30.3248531,13.5740124 L32.1563292,13.5740124 C32.7676682,13.5740124 32.9623006,13.9668345 32.9623006,14.2595454 C32.9623006,14.6599903 32.7488656,14.9257677 32.1492147,14.9257677 M33.4145797,15.5432049 C34.214453,15.1453009 34.4268717,14.6112051 34.4268717,13.8916241 C34.4268717,12.6130464 33.3881544,12.2944184 32.6690815,12.2944184 L28.8597739,12.2944184 L28.8597739,18.2604364 L30.3248531,18.2604364 L30.3248531,16.1565766 L32.2427196,16.1565766 C32.7488656,16.1565766 32.949088,16.6617062 32.9623006,17.1678522 L33.0019386,18.2604364 L34.4268717,18.2604364 L34.3745293,17.0347094 C34.3745293,16.0762843 34.1077354,15.6234971 33.4145797,15.5432049" id="Fill-21" fill="#0078A9" mask="url(#mask-4)"></path>
                <path d="M9.50451725,15.641385 L10.3780765,13.5558196 L11.2882245,15.641385 L9.50451725,15.641385 Z M19.8251187,12.29452 L18.0271824,16.2964274 L16.2358525,12.29452 L13.9393929,12.29452 L13.9393929,18.0404967 L11.3822376,12.29452 L9.44404398,12.29452 L6.83352994,18.2605381 L8.3789014,18.2605381 L8.95060245,16.9286017 L11.8746628,16.9286017 L12.4544947,18.2605381 L15.4029475,18.2605381 L15.4029475,13.8317606 L17.3614683,18.2605381 L18.6934047,18.2605381 L20.6971534,13.9054465 L20.6971534,18.2605381 L22.1622326,18.2605381 L22.1622326,12.29452 L19.8251187,12.29452 Z" id="Fill-22" fill="#0078A9" mask="url(#mask-4)"></path>
                <path d="M42.7773151,15.6443324 L43.6498579,13.558767 L44.568645,15.6443324 L42.7773151,15.6443324 Z M51.7746192,12.2913693 L51.7746192,16.422354 L49.3043624,12.2913693 L47.1395211,12.2913693 L47.1395211,17.8945478 L44.6443637,12.2944184 L42.7056619,12.2944184 L40.6881924,16.9157956 C40.6881924,16.9157956 39.8354685,16.9157956 39.7490781,16.8949602 C39.3969103,16.8222907 38.8450282,16.5732831 38.8379137,15.5213532 L38.8379137,15.0883849 C38.8379137,13.6898771 39.5971327,13.5877332 40.5708031,13.5877332 L41.474853,13.5877332 L41.474853,12.2913693 L39.5625766,12.2913693 C38.8963543,12.2913693 37.4475368,12.799548 37.3987516,15.2504939 C37.3652118,16.9020747 38.0847929,18.2634855 39.7094402,18.2634855 L41.6410275,18.2634855 L42.2127285,16.9315491 L45.1357725,16.9315491 L45.7150962,18.2634855 L48.6056167,18.2634855 L48.6056167,13.8946731 L51.2415397,18.2634855 L53.2396984,18.2634855 L53.2396984,12.2913693 L51.7746192,12.2913693 Z" id="Fill-23" fill="#0078A9" mask="url(#mask-4)"></path>
            </g>
        </g>
    </g>
</svg>
