<svg version="1.1" xmlns="http://www.w3.org/2000/svg" viewBox="0 0 640 640">
  <title>Cart</title>
  <path fill="white" d="M416 544c0 35.328 28.608 64 64 64 35.328 0 64-28.672 64-64 0-35.392-28.672-64-64-64-35.392 0-64 28.608-64 64zM96 544c0 35.328 28.64 64 64 64 35.296 0 64-28.672 64-64 0-35.392-28.704-64-64-64-35.36 0-64 28.608-64 64zM209.504 389.504l354.176-101.184c6.752-1.952 12.32-9.248 12.32-16.32v-176h-448v-51.2c0-7.040-5.792-12.8-12.768-12.8h-102.464c-7.008 0-12.768 5.76-12.768 12.8v51.2h64l61.12 286.624 2.88 30.176v52.768c0 7.008 5.76 12.8 12.8 12.8h422.4c7.040 0 12.8-5.824 12.8-12.8v-49.568h-359.936c-36.8 0-37.568-17.632-6.56-26.496z"></path>
</svg>