<?xml version="1.0" encoding="UTF-8"?>
<svg viewBox="0 0 140 40" version="1.1" xmlns="http://www.w3.org/2000/svg" xmlns:xlink="http://www.w3.org/1999/xlink">
    <title>RPM_Primary_Light_Logo</title>
    <g id="DESKTOP-HI-FI-(1440px)" stroke="none" stroke-width="1" fill="none" fill-rule="evenodd">
        <g id="Loyalty_LandingPage_LoggedOut_User-(Desktop)" transform="translate(-270.000000, -3596.000000)">
            <g id="Rich-Relevance" transform="translate(0.000000, 3032.000000)">
                <g id="product-card-row" transform="translate(158.000000, 184.000000)">
                    <g id="RPM-pricing" transform="translate(16.000000, 348.000000)">
                        <g id="RPM_Primary_Light_Logo" transform="translate(96.000000, 32.000000)">
                            <rect id="Rectangle" opacity="0.333746047" x="0" y="0" width="140" height="40"></rect>
                            <path d="M17.4752453,12.436338 C18.2447594,12.2286644 19.0152933,12.0706149 19.7848075,11.9570911 L21.6467327,6.6163773 C19.7494588,6.604821 17.8192154,6.84444445 15.8981491,7.36311874 C4.43701053,10.4578301 -2.34586258,22.2575005 0.748508878,33.718979 C1.02620016,34.7485101 1.37560855,35.7396335 1.78755694,36.6896299 L3.41903574,36.6896299 C0.646541453,26.1258048 6.91413918,15.2876871 17.4752453,12.436338" id="Fill-1" fill="#FFFFFF" fill-rule="nonzero"></path>
                            <path d="M26.9692958,1.33293529 L28.4576803,1.6809841 L22.1282224,37.0303712 C21.8603879,38.5262334 20.3927368,39.4918649 18.9131895,39.1458554 C17.4333022,38.799506 16.5461856,37.2835903 16.9693505,35.8240966 L26.9692958,1.33293529 Z" id="Fill-3" fill="#EB202E" fill-rule="nonzero"></path>
                            <polygon id="Fill-6" fill="#FFFFFF" fill-rule="nonzero" points="37.0797403 34.6257073 37.0797403 30.3342383 35.4027161 34.6257073 34.8493729 34.6257073 33.1720087 30.3342383 33.1720087 34.6257073 31.9048936 34.6257073 31.9048936 28.6748884 33.6804863 28.6748884 35.1260445 32.3953398 36.5712627 28.6748884 38.3560326 28.6748884 38.3560326 34.6257073"></polygon>
                            <polygon id="Fill-8" fill="#FFFFFF" fill-rule="nonzero" points="39.8901665 34.6257073 39.8901665 28.6748884 44.1017611 28.6748884 44.1017611 29.7897322 41.1572818 29.7897322 41.1572818 31.0391731 44.0392211 31.0391731 44.0392211 32.1543569 41.1572818 32.1543569 41.1572818 33.5105236 44.1017611 33.5105236 44.1017611 34.6257073"></polygon>
                            <polygon id="Fill-10" fill="#FFFFFF" fill-rule="nonzero" points="50.6232917 34.6257073 50.6232917 30.3342383 48.9459275 34.6257073 48.3929242 34.6257073 46.7155601 30.3342383 46.7155601 34.6257073 45.4484448 34.6257073 45.4484448 28.6748884 47.2240376 28.6748884 48.6695958 32.3953398 50.1148141 28.6748884 51.8995839 28.6748884 51.8995839 34.6257073"></polygon>
                            <path d="M57.1008064,32.8323042 C57.1008064,32.4577439 56.8329719,32.1542208 56.3425085,32.1542208 L54.7004931,32.1542208 L54.7004931,33.5103876 L56.3425085,33.5103876 C56.8149576,33.5103876 57.1008064,33.2605674 57.1008064,32.8323042 L57.1008064,32.8323042 Z M56.9845635,30.4143167 C56.9845635,30.0485935 56.7170689,29.7899362 56.2888058,29.7899362 L54.7004931,29.7899362 L54.7004931,31.0390372 L56.2888058,31.0390372 C56.7170689,31.0390372 56.9845635,30.7980541 56.9845635,30.4143167 L56.9845635,30.4143167 Z M53.4337178,34.6255714 L53.4337178,28.6747524 L56.5658173,28.6747524 C57.6986753,28.6747524 58.2785301,29.3973616 58.2785301,30.1913479 C58.2785301,30.9319713 57.8145783,31.4404489 57.2523979,31.5566917 C57.8947927,31.6545805 58.3947729,32.2701239 58.3947729,33.0107473 C58.3947729,33.9117994 57.8057412,34.6255714 56.663706,34.6255714 L53.4337178,34.6255714 Z" id="Fill-12" fill="#FFFFFF" fill-rule="nonzero"></path>
                            <polygon id="Fill-14" fill="#FFFFFF" fill-rule="nonzero" points="59.7057682 34.6257073 59.7057682 28.6748884 63.9173627 28.6748884 63.9173627 29.7897322 60.9728833 29.7897322 60.9728833 31.0391731 63.8548227 31.0391731 63.8548227 32.1543569 60.9728833 32.1543569 60.9728833 33.5105236 63.9173627 33.5105236 63.9173627 34.6257073"></polygon>
                            <path d="M68.752726,30.5838545 C68.752726,30.0930514 68.3689885,29.7898682 67.8693482,29.7898682 L66.5311956,29.7898682 L66.5311956,31.3958551 L67.8693482,31.3958551 C68.3689885,31.3958551 68.752726,31.092672 68.752726,30.5838545 L68.752726,30.5838545 Z M68.6279859,34.6258433 L67.4587593,32.5110389 L66.5311956,32.5110389 L66.5311956,34.6258433 L65.2640805,34.6258433 L65.2640805,28.6746844 L68.0481311,28.6746844 C69.288055,28.6746844 70.0551899,29.4863452 70.0551899,30.5930316 C70.0551899,31.6368382 69.3862836,32.2078557 68.7442287,32.3594473 L70.0912184,34.6258433 L68.6279859,34.6258433 Z" id="Fill-16" fill="#FFFFFF" fill-rule="nonzero"></path>
                            <path d="M70.9470649,33.7869233 L71.6431625,32.7964797 C72.0625886,33.2339199 72.7138205,33.6088202 73.5343184,33.6088202 C74.2395931,33.6088202 74.5696277,33.29612 74.5696277,32.9484112 C74.5696277,31.9134418 71.1435222,32.6360509 71.1435222,30.3965064 C71.1435222,29.4064027 72.0003885,28.5852251 73.4007411,28.5852251 C74.3466589,28.5852251 75.131808,28.8707338 75.7205,29.4152399 L75.0159051,30.3608178 C74.5339391,29.9148802 73.8915443,29.7095858 73.2848381,29.7095858 C72.7495091,29.7095858 72.4459861,29.9417317 72.4459861,30.2982778 C72.4459861,31.2353584 75.8632544,30.6018008 75.8632544,32.823671 C75.8632544,33.9120033 75.0781052,34.7328411 73.4809554,34.7328411 C72.3297433,34.7328411 71.5092453,34.3491037 70.9470649,33.7869233" id="Fill-18" fill="#FFFFFF" fill-rule="nonzero"></path>
                            <polygon id="Fill-20" fill="#FFFFFF" fill-rule="nonzero" points="81.145133 34.6257073 81.145133 32.1186683 78.3345709 32.1186683 78.3345709 34.6257073 77.0677956 34.6257073 77.0677956 28.6748884 78.3345709 28.6748884 78.3345709 31.0123217 81.145133 31.0123217 81.145133 28.6748884 82.4210854 28.6748884 82.4210854 34.6257073"></polygon>
                            <polygon id="Fill-22" fill="#FFFFFF" fill-rule="nonzero" points="83.9463821 34.6255034 85.2138372 34.6255034 85.2138372 28.6746844 83.9463821 28.6746844"></polygon>
                            <path d="M90.2362427,30.5929636 C90.2362427,30.0929834 89.8528452,29.7898002 89.352865,29.7898002 L88.0147125,29.7898002 L88.0147125,31.38695 L89.352865,31.38695 C89.8528452,31.38695 90.2362427,31.0834269 90.2362427,30.5929636 L90.2362427,30.5929636 Z M86.7475972,34.6257753 L86.7475972,28.6746165 L89.5316478,28.6746165 C90.8249347,28.6746165 91.5302094,29.5491571 91.5302094,30.5929636 C91.5302094,31.627933 90.8164374,32.5021337 89.5316478,32.5021337 L88.0147125,32.5021337 L88.0147125,34.6257753 L86.7475972,34.6257753 Z" id="Fill-24" fill="#FFFFFF" fill-rule="nonzero"></path>
                            <path d="M34.8754426,16.9780692 L36.8889593,16.9780692 C38.5683628,16.9780692 38.7440867,16.2955672 38.7440867,14.7381847 L38.7440867,13.9000124 C38.7440867,12.3586048 38.5788995,11.6829008 37.0021432,11.6829008 L34.8754426,11.6829008 L34.8754426,16.9780692 Z M38.8358573,25.8138864 L36.2999275,19.5184176 L34.8754426,19.5184176 L34.8754426,25.8138864 L31.9051315,25.8138864 L31.9051315,9.09700683 L36.911732,9.09700683 C40.066944,9.09700683 41.6688523,9.80160174 41.6688523,13.6512119 L41.6688523,14.987325 C41.6688523,17.4940242 41.0410728,18.6775262 39.4286279,19.2080967 L39.2930112,19.2526224 L41.9220714,25.8138864 L38.8358573,25.8138864 Z" id="Fill-25" fill="#FFFFFF" fill-rule="nonzero"></path>
                            <polygon id="Fill-26" fill="#FFFFFF" fill-rule="nonzero" points="43.6930417 25.8141583 46.7309911 25.8141583 46.7309911 9.09727874 43.6930417 9.09727874"></polygon>
                            <path d="M51.8968988,23.1377513 L53.6388423,23.1377513 C55.5588889,23.1377513 55.652699,22.0011545 55.652699,19.9920563 L55.652699,14.9191769 C55.652699,12.6840509 55.4705171,11.7734818 53.6388423,11.7734818 L51.8968988,11.7734818 L51.8968988,23.1377513 Z M48.8589494,25.8140563 L48.8589494,9.09717678 L53.6388423,9.09717678 C57.2743209,9.09717678 58.6906484,10.6280477 58.6906484,14.5568526 L58.6906484,20.3316078 C58.6906484,24.2254038 57.2274159,25.8140563 53.6388423,25.8140563 L48.8589494,25.8140563 Z" id="Fill-27" fill="#FFFFFF" fill-rule="nonzero"></path>
                            <polygon id="Fill-28" fill="#FFFFFF" fill-rule="nonzero" points="60.5790511 25.8139204 60.5790511 9.09704082 69.031131 9.09704082 68.639916 11.7736858 63.6170007 11.7736858 63.6170007 15.7779465 67.6936583 15.7779465 67.6936583 18.5446626 63.6170007 18.5446626 63.6170007 23.1376153 68.639916 23.1376153 69.031131 25.8139204"></polygon>
                            <path d="M73.9327392,16.9780692 L75.9462559,16.9780692 C77.6259993,16.9780692 77.8013832,16.2955672 77.8013832,14.7381847 L77.8013832,13.9000124 C77.8013832,12.3586048 77.636196,11.6829008 76.0597797,11.6829008 L73.9327392,11.6829008 L73.9327392,16.9780692 Z M77.8934938,25.8138864 L75.3572241,19.5184176 L73.9327392,19.5184176 L73.9327392,25.8138864 L70.962768,25.8138864 L70.962768,9.09700683 L75.9690286,9.09700683 C79.1245805,9.09700683 80.7264888,9.80160174 80.7264888,13.6512119 L80.7264888,14.987325 C80.7264888,17.4940242 80.0987093,18.6775262 78.4859246,19.2080967 L78.3506477,19.2526224 L80.9797079,25.8138864 L77.8934938,25.8138864 Z" id="Fill-29" fill="#FFFFFF" fill-rule="nonzero"></path>
                            <path d="M87.042793,25.9498429 C82.8029874,25.9498429 82.1884637,23.6837869 81.9573376,21.1220253 L84.9293481,21.1220253 C85.1264851,22.854112 85.6329234,23.3867217 87.042793,23.3867217 C88.8214447,23.3867217 89.1694935,22.6651323 89.1694935,21.4187505 C89.1694935,19.9531387 87.7912338,19.2723362 86.3324199,18.5514265 C84.4246093,17.6085677 82.26256,16.5399491 82.26256,13.5152553 C82.26256,10.4086478 83.8029479,8.96139016 87.1104313,8.96139016 C91.1459621,8.96139016 91.6510407,10.8579842 91.8797877,13.7664351 L88.9757554,13.7664351 C88.8190655,12.2015751 88.4747555,11.5017386 86.9972475,11.5017386 C85.3865021,11.5017386 85.1648929,12.3497677 85.1648929,13.2661149 C85.1648929,14.6668074 86.4598792,15.3176996 87.95982,16.0715787 C89.897541,17.0453676 92.0942592,18.149335 92.0942592,21.2148157 C92.0942592,24.5335154 90.5834419,25.9498429 87.042793,25.9498429" id="Fill-30" fill="#FFFFFF" fill-rule="nonzero"></path>
                            <path d="M100.860161,16.9780692 L102.986862,16.9780692 C104.563618,16.9780692 104.728804,16.2955672 104.728804,14.7381847 L104.728804,13.9000124 C104.728804,12.3586048 104.563618,11.6829008 102.986862,11.6829008 L100.860161,11.6829008 L100.860161,16.9780692 Z M97.8898492,25.8138864 L97.8898492,19.563963 L95.2784639,19.563963 L95.663221,16.9824877 L97.8898492,16.9824877 L97.8898492,9.09700683 L102.896451,9.09700683 C106.051663,9.09700683 107.653911,9.80160174 107.653911,13.6512119 L107.653911,14.987325 C107.653911,17.9552569 106.895952,19.5636232 102.896451,19.5636232 L100.860161,19.5636232 L100.860161,25.8138864 L97.8898492,25.8138864 Z" id="Fill-31" fill="#EB2230" fill-rule="nonzero"></path>
                            <polygon id="Fill-32" fill="#EB2230" fill-rule="nonzero" points="109.247933 25.8139204 109.247933 9.09704082 112.285883 9.09704082 112.285883 23.1376153 117.309138 23.1376153 117.700013 25.8139204"></polygon>
                            <path d="M123.505766,25.9498429 C119.917193,25.9498429 118.45396,24.322103 118.45396,20.3314378 L118.45396,9.09700683 L121.469477,9.09700683 L121.469477,19.9918863 C121.469477,22.0268162 121.568045,23.2735379 123.505766,23.2735379 C125.40508,23.2735379 125.542055,22.0339539 125.542055,19.9918863 L125.542055,9.09700683 L128.557913,9.09700683 L128.557913,20.3314378 C128.557913,24.2697597 127.047095,25.9498429 123.505766,25.9498429" id="Fill-33" fill="#EB2230" fill-rule="nonzero"></path>
                            <path d="M134.773302,25.9498429 C130.533837,25.9498429 129.918973,23.6837869 129.687848,21.1220253 L132.659858,21.1220253 C132.856995,22.854112 133.363773,23.3867217 134.773302,23.3867217 C136.551955,23.3867217 136.900343,22.6651323 136.900343,21.4187505 C136.900343,19.9531387 135.522084,19.2723362 134.06327,18.5514265 C132.155119,17.6085677 129.99307,16.5399491 129.99307,13.5152553 C129.99307,10.4086478 131.533798,8.96139016 134.841281,8.96139016 C138.876812,8.96139016 139.38155,10.8579842 139.610638,13.7664351 L136.706265,13.7664351 C136.549576,12.2015751 136.205265,11.5017386 134.727757,11.5017386 C133.117352,11.5017386 132.895403,12.3497677 132.895403,13.2661149 C132.895403,14.6668074 134.190729,15.3176996 135.69033,16.0715787 C137.628391,17.0453676 139.824769,18.149335 139.824769,21.2148157 C139.824769,24.5335154 138.314292,25.9498429 134.773302,25.9498429" id="Fill-34" fill="#EB2230" fill-rule="nonzero"></path>
                        </g>
                    </g>
                </g>
            </g>
        </g>
    </g>
</svg>