<svg xmlns="http://www.w3.org/2000/svg" xmlns:xlink="http://www.w3.org/1999/xlink" viewBox="0 0 221.9 31.55"><g fill="#fff"><path d="M59.95 15.75c1.78-5.12 4.2-6.5 9-6.5 2.52 0 5.26.18 7.7.45l.56-1.63c-2.38-.45-5.15-.74-8.22-.74-9.25 0-15.44 1.2-17.63 7.58-2.18 6.35 3.05 9.34 12.23 9.34 3.07 0 5.6-.27 8.3-.74l.56-1.63c-2.6.27-5.06.45-7.55.45-4.8-.01-6.66-1.55-4.95-6.57z"/><use xlink:href="#B"/><path d="M128.74 7.55s2.67 1.52 1.55 2.7l-8.76 8.7-3.74-11.4H106.3s2.38 1.37 1.9 2.82L103.5 24h2.07l4.46-13 4.32 13h4.75l12.86-12.7L127.6 24h8.36l5.66-16.44-12.87-.01z"/><use xlink:href="#B" x="65.85"/><path d="M196 7.55h-25.22l-.62 1.83h7.1c.65 0 1.1.64.9 1.26L173.53 24h8.38l4.72-13.7c.2-.54.7-.9 1.27-.9h7.46l.63-1.83z"/><use xlink:href="#B" x="117.74"/><path d="M12.34 0a3.86 3.86 0 0 0-3.61 2.53L.25 25.95a4.19 4.19 0 0 0 .51 3.82 4.19 4.19 0 0 0 3.42 1.78h25.1a4.55 4.55 0 0 0 4.26-2.98L43.88 0H12.34zM7.32 13.26c.35-.97 1.27-1.6 2.3-1.6h12.9l-2.4 6.68c-.35.97-1.27 1.6-2.3 1.6H4.9l2.4-6.68zM31.4 27.6c-.35.97-1.27 1.6-2.3 1.6H16.2l2.4-6.68c.35-.97 1.27-1.6 2.3-1.6h12.9l-2.4 6.68zm4.43-16.95h-12.9l2.4-6.68c.35-.97 1.27-1.6 2.3-1.6h12.9l-2.4 6.68c-.34.97-1.26 1.6-2.3 1.6z"/></g><defs ><path id="B" d="M92.4 7.24c-9.4 0-15.04 2.54-16.8 7.67-1.76 5.12 1.96 9.4 11.36 9.4 9.38 0 15.02-2.5 16.78-7.62s-1.96-9.45-11.34-9.45zm2.72 8.5c-1.9 5.53-3.72 6.73-7.53 6.73-3.83 0-5.28-1.2-3.4-6.73 1.92-5.53 3.74-6.68 7.58-6.68 3.8 0 5.25 1.16 3.34 6.68z"/></defs></svg>