<?xml version="1.0" encoding="UTF-8"?>
<svg width="63px" height="40px" viewBox="0 0 63 40" version="1.1" xmlns="http://www.w3.org/2000/svg" xmlns:xlink="http://www.w3.org/1999/xlink">
    <!-- Generator: Sketch 63.1 (92452) - https://sketch.com -->
    <title>Artboard</title>
    <desc>Created with Sketch.</desc>
    <defs>
        <polygon id="path-1" points="0.00379143646 0.0343125 37.9203409 0.0343125 37.9203409 11.7496616 0.00379143646 11.7496616"></polygon>
    </defs>
    <g id="Artboard" stroke="none" stroke-width="1" fill="none" fill-rule="evenodd">
        <rect id="Rectangle" fill="#FFFFFF" x="0" y="0" width="63" height="40" rx="2"></rect>
        <g id="PayPal_logo" transform="translate(9.000000, 15.000000)">
            <g id="Group-5">
                <mask id="mask-2" fill="white">
                    <use xlink:href="#path-1"></use>
                </mask>
                <g id="Clip-2"></g>
                <path d="M37.2039758,2.40225414 C36.7260653,2.13558978 35.9785204,2.00080421 34.9557172,2.00080421 C34.4500028,2.00080421 33.9415711,2.04149896 33.4315597,2.1206768 C33.0572186,2.17799068 33.0186091,2.18753246 32.7860045,2.23802175 C32.3077148,2.34222307 32.2337818,2.82133425 32.2337818,2.82133425 L32.0801022,3.45324033 C31.9928992,3.85747065 32.2231657,3.84066195 32.3257873,3.80950898 C32.5348218,3.74631837 32.6479962,3.68369648 33.0740905,3.58726761 C33.4816699,3.49475656 33.9121243,3.42556285 34.2554389,3.42821685 C34.7591312,3.42821685 35.1421927,3.48357182 35.3967876,3.58979523 C35.651509,3.70094751 35.7777638,3.890077 35.7777638,4.16072238 C35.7784589,4.2251136 35.7802914,4.28577659 35.7570373,4.33904627 C35.7359948,4.38846133 35.6958688,4.43629662 35.5755539,4.4525366 C34.8564448,4.49537983 34.340683,4.56103488 33.7192666,4.65146064 C33.1061281,4.73790539 32.5696398,4.88589779 32.1213025,5.09063536 C31.6432023,5.30270304 31.2854171,5.58655525 31.0388474,5.94610981 C30.7989758,6.30718094 30.6782818,6.74471271 30.6776499,7.26015849 C30.6776499,7.74716851 30.8526247,8.14438467 31.1913895,8.45262845 C31.534009,8.75689123 31.979566,8.90760083 32.5187714,8.90760083 C32.8557037,8.90532597 33.1193981,8.88093439 33.3085276,8.83373101 C33.4954454,8.78646443 33.6994879,8.71948239 33.9150311,8.62621305 C34.0759144,8.55891506 34.2498781,8.46147514 34.4332573,8.33932769 C34.6169523,8.2168643 34.7442182,8.12978764 34.9073132,8.02293232 L34.9131267,8.0331692 L34.8672503,8.23575829 C34.8669976,8.23746443 34.8642804,8.23853867 34.8642804,8.24056077 L34.8657338,8.24435221 C34.8132856,8.48833115 34.9598878,8.69136257 35.201655,8.71531181 L35.2047514,8.71948239 L35.2259834,8.71948239 L35.2268049,8.72055663 C35.3872459,8.72055663 35.9378888,8.72030387 36.1953273,8.71948239 L36.3749782,8.71948239 C36.3868581,8.71948239 36.3880587,8.71594372 36.3926084,8.71322652 C36.6395573,8.68289503 36.8760798,8.4818857 36.9318139,8.24056077 L37.8508581,4.2735808 C37.8720901,4.18018508 37.8887093,4.07257148 37.8986302,3.94852831 C37.9101309,3.82315815 37.9236537,3.72009427 37.9196095,3.64552935 C37.9217579,3.08420718 37.6805594,2.66917127 37.2039758,2.40225414 M34.9771388,7.12935394 C34.8208052,7.22774171 34.6558146,7.31197479 34.4830515,7.38363294 C34.2505732,7.4774078 34.0302907,7.52638052 33.826501,7.52638052 C33.513518,7.52638052 33.2732041,7.48227348 33.110741,7.38774033 C32.9480884,7.29794648 32.8626547,7.14205525 32.8653719,6.91867645 C32.8653719,6.66092196 32.9249606,6.46098688 33.0481823,6.3040846 C33.1721623,6.15331181 33.3564261,6.03173308 33.5850497,5.94118094 C33.81222,5.86421478 34.0917752,5.80064503 34.4145528,5.75514779 C34.7015646,5.71893957 35.2690162,5.65366367 35.3414959,5.65322134 C35.4141019,5.65265262 35.4624427,5.61252659 35.4300891,5.80601623 C35.4156816,5.88999655 35.2518916,6.56266057 35.1766948,6.86831354 C35.154894,6.9600663 35.0328729,7.09346167 34.9771388,7.12935394" id="Fill-1" fill="#365E88" mask="url(#mask-2)"></path>
                <path d="M21.392106,2.08866366 C21.1224717,2.08866366 20.7687939,2.30677314 20.6014019,2.57059392 C20.6014019,2.57059392 18.7978788,5.66251036 18.6208187,5.97144924 C18.524453,6.13757735 18.4268235,6.03198584 18.4106468,5.97018543 C18.3975031,5.8950518 17.8516626,2.5909413 17.8516626,2.5909413 C17.7903677,2.32490884 17.5123923,2.09653798 17.1650335,2.09761222 L16.0403671,2.09925518 C15.7692794,2.09925518 15.6002445,2.3164413 15.6605283,2.5788087 C15.6605283,2.5788087 16.5201733,7.45137327 16.6876916,8.59746133 C16.771356,9.23119993 16.6790977,9.34361602 16.6790977,9.34361602 L15.564605,11.2867904 C15.4013836,11.5503584 15.4907983,11.7660912 15.7606222,11.7660912 L17.0639285,11.7650801 C17.3336892,11.7650801 17.6910321,11.5503584 17.8516626,11.2863481 L22.8652686,2.8068636 C22.8652686,2.8068636 23.344759,2.08257286 22.9025511,2.08866366 C22.6009423,2.09293612 21.392106,2.08866366 21.392106,2.08866366" id="Fill-3" fill="#202F50" mask="url(#mask-2)"></path>
                <path d="M5.56500725,3.81216298 C5.18561084,4.08969613 4.6597386,4.22865228 3.97696409,4.22865228 L3.66840435,4.22865228 C3.39649517,4.22865228 3.22486948,4.01310912 3.28471098,3.74808771 L3.66353867,2.11555836 C3.72135808,1.85255905 3.99263536,1.63429869 4.26454454,1.63682631 L4.67642093,1.63429869 C5.15742783,1.63429869 5.52317507,1.71663605 5.76993439,1.8804261 C6.01309185,2.03985601 6.13669268,2.29141782 6.13239572,2.62980352 C6.13966264,3.13943577 5.94642576,3.53393474 5.56500725,3.81216298 M8.28264572,1.29584979 C8.12624896,0.990765539 7.89168543,0.742868785 7.5924779,0.555824586 C7.28195925,0.364293854 6.9210145,0.232162293 6.50003867,0.152731699 C6.07659841,0.0767133978 5.58200552,0.0394309392 5.01455387,0.0343125 L2.38734116,0.0362714088 C2.11442093,0.0394309392 1.84687189,0.253583909 1.78380767,0.516014503 L0.0122589779,8.2174962 C-0.048656768,8.48093785 0.121894682,8.69869268 0.393867058,8.69869268 L1.6523712,8.69869268 C1.92453315,8.69869268 2.19416747,8.48668819 2.25533598,8.2174962 L2.68901312,6.34857079 C2.7470221,6.08727762 3.01596133,5.87091298 3.28869199,5.87091298 L3.64849931,5.87091298 C5.18769613,5.8694596 6.38155628,5.5545808 7.23943198,4.92431768 C8.09617023,4.29525518 8.52466575,3.4615183 8.52262093,2.43043715 C8.52466575,1.97755007 8.44618301,1.5985328 8.28264572,1.29584979" id="Fill-4" fill="#202F50" mask="url(#mask-2)"></path>
            </g>
            <path d="M28.416058,3.84375829 C28.0389997,4.11806872 27.5096519,4.25557148 26.8286468,4.25557148 L26.5154741,4.25557148 C26.2446392,4.2587942 26.069538,4.03958598 26.1339924,3.77702901 L26.5114299,2.14190884 C26.5676695,1.88345925 26.8426119,1.66323999 27.1097186,1.66538847 L27.5235539,1.66323999 C28.0065197,1.66538847 28.3675908,1.74620925 28.6172569,1.90683978 C28.8624365,2.06936602 28.981298,2.32137017 28.9832609,2.65729144 C28.984268,3.16926174 28.7948857,3.56306561 28.416058,3.84375829 M31.132559,1.32409599 C30.9758463,1.01882217 30.7389448,0.773137086 30.4395477,0.581922307 C30.1324413,0.391023481 29.7677051,0.25781768 29.3450863,0.180156423 C28.9273332,0.10704489 28.4307814,0.065086326 27.8647831,0.0636961326 L25.2317569,0.065086326 C24.9605428,0.0697624309 24.6945104,0.282588398 24.6319517,0.54482942 L22.8616036,8.24852279 C22.7971492,8.51038467 22.9731982,8.72858184 23.2395466,8.72707312 L24.5028532,8.72485359 C24.7709078,8.72707312 25.0438912,8.51038467 25.1070818,8.24852279 L25.5341872,6.37902866 C25.5940287,6.1170404 25.8663802,5.8977058 26.1387949,5.90143405 L26.4979703,5.90143405 C28.0389997,5.90143405 29.2338077,5.5848491 30.0895349,4.95464917 C30.9430504,4.32116333 31.3726202,3.49039641 31.3726202,2.45678764 C31.369903,2.00573308 31.293,1.62557838 31.132559,1.32409599" id="Fill-6" fill="#365E88"></path>
            <path d="M14.3490704,2.39618785 C13.8711599,2.12958667 13.1239309,1.99492749 12.1010646,1.99492749 C11.5950342,1.99492749 11.0869185,2.0351799 10.5766544,2.11448412 C10.2016181,2.17135566 10.1640197,2.18115021 9.93122548,2.2316395 C9.45249344,2.33634634 9.37881319,2.81501519 9.37881319,2.81501519 L9.22526001,3.4473636 C9.13818336,3.85127797 9.36876588,3.83465884 9.47088191,3.80325311 C9.67941091,3.74025207 9.79328039,3.67788294 10.219501,3.58082217 C10.626259,3.48881664 11.0572821,3.41974931 11.4003439,3.42221374 C11.9044154,3.42221374 12.2871609,3.47725276 12.5416927,3.58341298 C12.79673,3.69456526 12.9221633,3.88413709 12.9221633,4.1545297 C12.9238063,4.21892093 12.9251333,4.27983667 12.902511,4.33260083 C12.8812158,4.38252141 12.8405843,4.43010394 12.7200798,4.44628073 C12.0019817,4.48969268 11.4862831,4.55496858 10.8639189,4.6456471 C10.2507804,4.73190228 9.71454489,4.87983149 9.26589157,5.08444268 C8.78779144,5.29644717 8.43051174,5.58074171 8.18438432,5.94016989 C7.94356492,6.30124102 7.82318681,6.73864641 7.82268128,7.2540922 C7.82268128,7.74091264 7.99797203,8.13831837 8.33616816,8.44637258 C8.67897721,8.75076174 9.12428142,8.9017241 9.66348688,8.9017241 C10.0006088,8.89925967 10.2641136,8.87455214 10.4537486,8.82779109 C10.6406032,8.78014537 10.8448353,8.71347928 11.0594306,8.62033633 C11.2210722,8.55297514 11.3944672,8.45515608 11.5780991,8.33332459 C11.7613519,8.21098757 11.8891865,8.12403729 12.0530397,8.0169924 L12.058095,8.02691333 L12.0121554,8.22937604 C12.0117131,8.23120856 12.0092486,8.23253557 12.0092486,8.23474724 L12.0111443,8.23790677 C11.9586329,8.4825808 12.104856,8.68542265 12.3467497,8.70880318 L12.3497196,8.71347928 L12.3708885,8.71347928 L12.3714572,8.71505905 C12.5323405,8.71505905 13.0832362,8.71423757 13.3399164,8.71347928 L13.5198833,8.71347928 C13.5319527,8.71347928 13.5335956,8.70956146 13.5374503,8.70703384 C13.7847783,8.67600725 14.0206057,8.47525069 14.0767821,8.23474724 L14.9959527,4.26732493 C15.0166792,4.17430836 15.0336143,4.06656837 15.0429665,3.94284116 C15.0552255,3.81690228 15.0685587,3.71421754 15.06502,3.63996858 C15.0671053,3.0780145 14.8253381,2.66297859 14.3490704,2.39618785 M12.1222334,7.12341402 C11.9660262,7.2217386 11.8012251,7.30546616 11.6282724,7.37762983 C11.3959206,7.47077279 11.1745639,7.52044061 10.9714061,7.52044061 C10.659434,7.52044061 10.4184251,7.47595442 10.2556461,7.38180041 C10.0931198,7.29181699 10.0074334,7.13586257 10.0100874,6.91242058 C10.0100874,6.65517162 10.0702448,6.45460463 10.1932137,6.29808149 C10.3173833,6.14692956 10.500952,6.02528764 10.7295124,5.93492507 C10.9573778,5.85739019 11.2378177,5.79483149 11.5595211,5.74927106 C11.8464064,5.71312604 12.41449,5.64791333 12.4869064,5.64683909 C12.5588173,5.64658633 12.6072845,5.60614434 12.5749309,5.79963398 C12.5609026,5.8836143 12.396923,6.55659427 12.3217894,6.86231043 C12.2992303,6.95425276 12.1772724,7.0879009 12.1222334,7.12341402" id="Fill-7" fill="#202F50"></path>
            <path d="M41.5432117,0.127013122 L40.417155,0.127013122 C40.4165231,0.127013122 40.4157017,0.127202693 40.4155121,0.127202693 L40.4148802,0.127013122 C40.1569361,0.127013122 39.8954534,0.324483771 39.8224682,0.575729627 C39.8194351,0.585840124 39.8142535,0.595634669 39.8119786,0.6061875 C39.8119786,0.6061875 39.7851858,0.728650898 39.7386143,0.940529006 L38.1917714,7.95190608 C38.1560055,8.11045131 38.1321195,8.21370477 38.1248526,8.24056077 L38.1278857,8.24435221 C38.0743633,8.48940539 38.2217238,8.69224724 38.4636174,8.71486948 L38.4665874,8.71948239 L39.6356136,8.71948239 C39.8917251,8.71948239 40.1515649,8.52397065 40.2269513,8.27588432 C40.2305532,8.26381492 40.2363035,8.25263018 40.2390207,8.24056077 L41.9263363,0.605745166 L41.9236823,0.604860497 C41.9810594,0.343756906 41.8129092,0.127013122 41.5432117,0.127013122" id="Fill-8" fill="#365E88"></path>
            <path d="M43.6753892,1.68150207 C43.6371588,1.69161257 43.5952003,1.70001692 43.5492607,1.70665193 C43.5035107,1.71303419 43.4625,1.71663605 43.4272396,1.71663605 C43.3014271,1.71663605 43.2067044,1.68270269 43.1414917,1.61559427 C43.0764054,1.54835946 43.044115,1.44049309 43.044115,1.29212155 L43.044115,0.640879144 L42.9046533,0.640879144 L42.9046533,0.467294544 L43.044115,0.467294544 L43.044115,0.11544924 L43.24999,0.11544924 L43.24999,0.467294544 L43.6753892,0.467294544 L43.6753892,0.640879144 L43.24999,0.640879144 L43.24999,1.1989154 C43.24999,1.26311706 43.2519489,1.31354316 43.2542869,1.34968819 C43.257636,1.38608598 43.2678097,1.41970338 43.2855031,1.45104593 C43.3011112,1.48049275 43.3231015,1.50159841 43.3514741,1.51518439 C43.3798467,1.52883356 43.4228795,1.53565815 43.4805725,1.53565815 C43.5141267,1.53565815 43.5492607,1.53053971 43.586164,1.52061878 C43.6223722,1.51095062 43.6487859,1.50267265 43.6648363,1.49616402 L43.6753892,1.49616402 L43.6753892,1.68150207" id="Fill-9" fill="#365E88"></path>
            <path d="M45.7123384,1.69218128 L45.506337,1.69218128 L45.506337,0.994683356 C45.506337,0.942235152 45.5038726,0.891240331 45.4990701,0.842393992 C45.4942676,0.793168508 45.4837148,0.754306285 45.4687386,0.724922652 C45.4517403,0.69351692 45.4279175,0.669694061 45.3963854,0.653896409 C45.3648532,0.637719613 45.3197352,0.629694406 45.2604624,0.629694406 C45.2025166,0.629694406 45.1452659,0.644038674 45.0871305,0.672979972 C45.0295007,0.70185808 44.9718077,0.738508633 44.9140515,0.783121202 C44.9161999,0.799993094 44.9179061,0.819455801 44.9193595,0.841888467 C44.9210024,0.86406837 44.9216975,0.886058702 44.9216975,0.908112224 L44.9216975,1.69218128 L44.7156961,1.69218128 L44.7156961,0.994683356 C44.7156961,0.940529006 44.7129789,0.889281423 44.708366,0.840751036 C44.7036899,0.792031077 44.693453,0.753232044 44.6783505,0.723974793 C44.6611626,0.69244268 44.6370238,0.669062155 44.6054917,0.653074931 C44.5743387,0.637593232 44.5288415,0.629694406 44.4696319,0.629694406 C44.4133291,0.629694406 44.357279,0.64359634 44.3004075,0.671337017 C44.2437255,0.699077693 44.1872963,0.734401243 44.1308039,0.777686809 L44.1308039,1.69218128 L43.9246129,1.69218128 L43.9246129,0.467294544 L44.1308039,0.467294544 L44.1308039,0.603154351 C44.1954479,0.549947859 44.2594599,0.508178867 44.3232825,0.478163329 C44.3877369,0.448463743 44.4550981,0.433171616 44.5278305,0.433171616 C44.6111157,0.433171616 44.6819523,0.450864986 44.7402141,0.485683011 C44.7980335,0.521132942 44.8415086,0.569536948 44.8700708,0.631842887 C44.9531032,0.561574931 45.0295007,0.510706492 45.0981889,0.479806285 C45.1666875,0.448906077 45.2403046,0.433171616 45.3184081,0.433171616 C45.4530673,0.433171616 45.5523398,0.47411913 45.6162255,0.555382251 C45.680048,0.637087707 45.7123384,0.750957182 45.7123384,0.897117058 L45.7123384,1.69218128" id="Fill-10" fill="#365E88"></path>
        </g>
    </g>
</svg>