<?xml version="1.0" encoding="utf-8"?>
<!-- Generator: Adobe Illustrator 25.2.3, SVG Export Plug-In . SVG Version: 6.00 Build 0)  -->
<svg version="1.1" id="Layer_1" xmlns="http://www.w3.org/2000/svg" xmlns:xlink="http://www.w3.org/1999/xlink" x="0px" y="0px"
	 viewBox="0 0 530.5 100.6" style="enable-background:new 0 0 530.5 100.6;" xml:space="preserve">
<style type="text/css">
	.st0{fill:#FFFFFF;}
	.st1{fill:none;}
	.st2{font-family:'Impact';}
	.st3{font-size:70px;}
</style>
<polygon points="455.9,94.5 14.7,94.5 88.1,21.9 373.6,21.6 392.2,5.5 475.3,6.1 455.5,21.6 515.8,21.6 "/>
<path class="st0" d="M466.7,6.1L465,7.8l-13.7,13.8h65.3l-1.7,1.7l-39.4,39.3h12.3l-1.7,1.7l-29.9,29.9l-0.3,0.3H75.6l0,0l-13.7,0
	l0.3-0.3l0,0l-0.3,0.3H15.5l1.7-1.7l70.9-70.9l0.3-0.3h285.2l15.2-15.2l0.3-0.3H466.7 M481.4,0h-94.9l-1.8,1.8l-0.3,0.3l-13.4,13.4
	H85.9l-1.8,1.8l-0.3,0.3L12.9,88.5l-1.7,1.7L0.8,100.6h457.7l1.8-1.8l0.3-0.3l29.9-29.9l1.7-1.7l10.4-10.4h-12.3l28.9-28.9l1.7-1.7
	l10.4-10.4h-65.3l3.4-3.4l1.7-1.7L481.4,0L481.4,0L481.4,0z"/>
<rect x="97.7" y="30.3" class="st1" width="377.9" height="66.4"/>
<text transform="matrix(1 0 0 1 97.681 85.6554)" class="st0 st2 st3">MOTO PARTS</text>
</svg>
