<?xml version="1.0" encoding="UTF-8"?>
<svg width="64px" height="41px" viewBox="0 0 64 41" version="1.1" xmlns="http://www.w3.org/2000/svg" xmlns:xlink="http://www.w3.org/1999/xlink">
    <defs>
        <polygon id="path-1" points="63.7407033 40.1461182 0 40.1461182 0 0.308718567 63.7407033 0.308718567"></polygon>
    </defs>
    <g id="Symbols" stroke="none" stroke-width="1" fill="none" fill-rule="evenodd">
        <g id="Payment-Form_1440" transform="translate(-79.000000, -54.000000)">
            <g id="Page-1" transform="translate(79.000000, 54.000000)">
                <g id="Group-3" transform="translate(0.000000, 0.199765)">
                    <mask id="mask-2" fill="white">
                        <use xlink:href="#path-1"></use>
                    </mask>
                    <g id="Clip-2"></g>
                    <path d="M63.7407033,38.0221852 C63.7407033,39.1960781 62.7888845,40.1463723 61.6154999,40.1463723 L2.12403456,40.1463723 C0.950649915,40.1463723 -0.000152453613,39.1960781 -0.000152453613,38.0221852 L-0.000152453613,2.43392194 C-0.000152453613,1.26002911 0.950649915,0.308718567 2.12403456,0.308718567 L61.6154999,0.308718567 C62.7888845,0.308718567 63.7407033,1.26002911 63.7407033,2.43392194 L63.7407033,38.0221852 Z" id="Fill-1" fill="#13457C" mask="url(#mask-2)"></path>
                </g>
                <polygon id="Fill-4" fill="#FBB231" points="39.5188224 31.8627544 40.109326 31.847509 40.692207 31.8053302 41.2628917 31.7326606 41.8305273 31.631533 42.3824094 31.5044884 42.9261606 31.350002 43.4582237 31.1685822 43.9780906 30.9642944 44.4872856 30.7330731 44.9817435 30.482541 45.4599397 30.204059 45.9264477 29.9072827 46.3741532 29.5876383 46.8061051 29.2476667 47.2228116 28.8888925 47.6196992 28.5072503 48.0018496 28.1098546 48.3601156 27.6926399 48.7005953 27.2611961 49.0202397 26.8134907 49.3170161 26.3469826 49.5949898 25.8682783 49.8450138 25.3743286 50.0762351 24.8656417 50.2810311 24.3447585 50.4624509 23.8121872 50.6174454 23.2689442 50.7444901 22.7170621 50.8446013 22.1504428 50.9182872 21.57925 50.9609742 20.9968772 50.9757114 20.4063735 50.9609742 19.8199353 50.9182872 19.2416279 50.8446013 18.670435 50.7444901 18.1109303 50.6174454 17.5595564 50.4624509 17.0193624 50.2810311 16.4872993 50.0762351 15.9704815 49.8450138 15.4653519 49.5949898 14.970894 49.3170161 14.4967633 49.0202397 14.0302552 48.7005953 13.5825498 48.3601156 13.1546633 48.0018496 12.7384649 47.6196992 12.340561 47.2228116 11.962476 46.8061051 11.6037019 46.3741532 11.2642385 45.9264477 10.9440859 45.4599397 10.6468014 44.9817435 10.3734012 44.4872856 10.1228691 43.9780906 9.89063143 43.4582237 9.68634359 42.9261606 9.50543197 42.3824094 9.35094564 41.8305273 9.22390096 41.2628917 9.12378976 40.692207 9.05010385 40.109326 9.00741683 39.5188224 8.99166329 38.9334005 9.00741683 38.3505195 9.05010385 37.7798348 9.12378976 37.2162646 9.22390096 36.6643825 9.35094564 36.1206313 9.50543197 35.5921255 9.68634359 35.0712423 9.89063143 34.5661126 10.1228691 34.0767365 10.3734012 33.5985404 10.6468014 33.1345732 10.9440859 32.6883923 11.2642385 32.255424 11.6037019 31.8427829 11.962476 31.4453872 12.340561 31.0673022 12.7384649 30.7090362 13.1546633 30.3695729 13.5825498 30.0529775 14.0302552 29.7551848 14.4967633 29.4822928 14.970894 29.2271871 15.4653519 29.0000312 15.9704815 28.7952352 16.4872993 28.6178808 17.0193624 28.4639027 17.5595564 28.3358417 18.1109303 28.2357304 18.670435 28.1630609 19.2416279 28.1203739 19.8199353 28.1046203 20.4063735 28.1203739 20.9968772 28.1630609 21.57925 28.2357304 22.1504428 28.3358417 22.7170621 28.4639027 23.2689442 28.6178808 23.8121872 28.7952352 24.3447585 29.0000312 24.8656417 29.2271871 25.3743286 29.4822928 25.8682783 29.7551848 26.3469826 30.0529775 26.8134907 30.3695729 27.2611961 30.7090362 27.6926399 31.0673022 28.1098546 31.4453872 28.5072503 31.8427829 28.8888925 32.255424 29.2476667 32.6883923 29.5876383 33.1345732 29.9072827 33.5985404 30.204059 34.0767365 30.482541 34.5661126 30.7330731 35.0712423 30.9642944 35.5921255 31.1685822 36.1206313 31.350002 36.6643825 31.5044884 37.2162646 31.631533 37.7798348 31.7326606 38.3505195 31.8053302 38.9334005 31.847509"></polygon>
                <polygon id="Fill-6" fill="#EC1C2E" points="24.2208645 31.8627544 24.8062864 31.847509 25.3891674 31.8053302 25.9608684 31.7326606 26.5234223 31.631533 27.0753044 31.5044884 27.6185474 31.350002 28.1475614 31.1685822 28.6684446 30.9642944 29.1735743 30.7330731 29.6639667 30.482541 30.1411465 30.204059 30.6051137 29.9072827 31.0523109 29.5876383 31.4842629 29.2476667 31.896904 28.8888925 32.2942997 28.5072503 32.6723847 28.1098546 33.031667 27.6926399 33.3701141 27.2611961 33.6867094 26.8134907 33.9834858 26.3469826 34.2573941 25.8682783 34.5124998 25.3743286 34.7396557 24.8656417 34.9444517 24.3447585 35.1218061 23.8121872 35.2757842 23.2689442 35.4038453 22.7170621 35.5029401 22.1504428 35.5776424 21.57925 35.619313 20.9968772 35.6340502 20.4063735 35.619313 19.8199353 35.5776424 19.2416279 35.5029401 18.670435 35.4038453 18.1109303 35.2757842 17.5595564 35.1218061 17.0193624 34.9444517 16.4872993 34.7396557 15.9704815 34.5124998 15.4653519 34.2573941 14.970894 33.9834858 14.4967633 33.6867094 14.0302552 33.3701141 13.5825498 33.031667 13.1546633 32.6723847 12.7384649 32.2942997 12.340561 31.896904 11.962476 31.4842629 11.6037019 31.0523109 11.2642385 30.6051137 10.9440859 30.1411465 10.6468014 29.6639667 10.3734012 29.1735743 10.1228691 28.6684446 9.89063143 28.1475614 9.68634359 27.6185474 9.50543197 27.0753044 9.35094564 26.5234223 9.22390096 25.9608684 9.12378976 25.3891674 9.05010385 24.8062864 9.00741683 24.2208645 8.99166329 23.6303609 9.00741683 23.0474799 9.05010385 22.4767952 9.12378976 21.9091596 9.22390096 21.3582939 9.35094564 20.8145426 9.50543197 20.2814632 9.68634359 19.7615964 9.89063143 19.2524013 10.1228691 18.7589598 10.3734012 18.2807636 10.6468014 17.8132392 10.9440859 17.3655337 11.2642385 16.9335818 11.6037019 16.5168753 11.962476 16.1199877 12.340561 15.7378373 12.7384649 15.3795713 13.1546633 15.0401079 13.5825498 14.7194472 14.0302552 14.4226708 14.4967633 14.1446971 14.970894 13.8946731 15.4653519 13.6624355 15.9704815 13.4586558 16.4872993 13.277236 17.0193624 13.1222415 17.5595564 12.9951968 18.1109303 12.8950856 18.670435 12.8213997 19.2416279 12.7787127 19.8199353 12.7639755 20.4063735 12.7787127 20.9968772 12.8213997 21.57925 12.8950856 22.1504428 12.9951968 22.7170621 13.1222415 23.2689442 13.277236 23.8121872 13.4586558 24.3447585 13.6624355 24.8656417 13.8946731 25.3743286 14.1446971 25.8682783 14.4226708 26.3469826 14.7194472 26.8134907 15.0401079 27.2611961 15.3795713 27.6926399 15.7378373 28.1098546 16.1199877 28.5072503 16.5168753 28.8888925 16.9335818 29.2476667 17.3655337 29.5876383 17.8132392 29.9072827 18.2807636 30.204059 18.7589598 30.482541 19.2524013 30.7330731 19.7615964 30.9642944 20.2814632 31.1685822 20.8145426 31.350002 21.3582939 31.5044884 21.9091596 31.631533 22.4767952 31.7326606 23.0474799 31.8053302 23.6303609 31.847509"></polygon>
                <polygon id="Fill-8" fill="#FBB231" points="30.5314278 13.3782619 36.6077206 13.3782619 36.6077206 12.7567594 31.05536 12.7567594"></polygon>
                <polygon id="Fill-10" fill="#FBB231" points="29.6212289 14.7588818 36.6076698 14.7588818 36.6076698 14.1373793 29.9876257 14.1373793"></polygon>
                <polygon id="Fill-12" fill="#FBB231" points="28.9413874 16.1362494 36.6077714 16.1362494 36.6077714 15.5147469 29.2122467 15.5147469"></polygon>
                <polygon id="Fill-14" fill="#FBB231" points="28.4748793 17.5171234 36.6077714 17.5171234 36.6077714 16.8961291 28.6684954 16.8961291"></polygon>
                <polygon id="Fill-16" fill="#FBB231" points="28.7458402 24.1907295 36.6266757 24.1907295 36.6266757 23.5697352 28.5522241 23.5697352"></polygon>
                <polygon id="Fill-18" fill="#FBB231" points="29.3274508 25.5715527 36.6264216 25.5715527 36.6264216 24.9505583 29.0388053 24.9505583"></polygon>
                <polygon id="Fill-20" fill="#FBB231" points="30.1453136 26.948717 36.6266249 26.948717 36.6266249 26.3277227 29.7550323 26.3277227"></polygon>
                <polygon id="Fill-22" fill="#FBB231" points="31.2718442 28.3295911 36.6265232 28.3295911 36.6265232 27.7045312 30.7280929 27.7045312"></polygon>
                <polygon id="Fill-24" fill="#FBB231" points="28.2019366 18.8942877 36.6077206 18.8942877 36.6077206 18.2732934 28.3208504 18.2732934"></polygon>
                <polygon id="Fill-26" fill="#FBB231" points="33.3244288 22.8138193 36.5295119 22.8138193 36.5295119 22.1923168 33.4397854 22.1923168"></polygon>
                <polygon id="Fill-28" fill="#FBB231" points="33.5785181 21.4361468 36.5295119 21.4361468 36.5295119 20.8115952 33.6948911 20.8115952"></polygon>
                <polygon id="Fill-30" fill="#FBB231" points="27.9895179 20.8113411 28.8224228 20.8113411 28.8224228 21.4358927 28.0281394 21.4358927"></polygon>
                <polygon id="Fill-32" fill="#FFFFFF" points="26.4342369 20.0587793 26.3808781 20.055222 26.3259948 20.0475993 26.2761933 20.0399766 26.2269 20.0318458 26.1801476 20.0247313 26.130346 20.0166004 26.0800364 20.0094859 26.0251531 20.0013551 25.9717943 19.9942406 25.9103047 19.989667 25.8406842 19.9856015 25.7680146 19.9820443 25.686706 19.9820443 25.5977748 19.9856015 25.4971554 19.9942406 25.3858642 20.0013551 25.3086211 20.0130432 25.2354433 20.0247313 25.1698883 20.0475993 25.1109396 20.0704674 25.0575808 20.097909 25.0077793 20.1283997 24.9691577 20.1675295 24.9346015 20.2020857 24.9107171 20.2442645 24.8908982 20.2869515 24.8837837 20.3331958 24.8837837 20.37944 24.89598 20.4297497 24.9107171 20.4795512 24.9412079 20.5298609 24.9803376 20.5801706 25.0575808 20.6528402 25.1510857 20.7112807 25.2583114 20.7610822 25.3741761 20.8032611 25.4971554 20.8423908 25.6252164 20.8845697 25.7522611 20.9313221 25.8752403 20.9811236 25.9916133 21.0466787 26.098839 21.1274791 26.1959011 21.2245412 26.2761933 21.3439632 26.3381911 21.4903187 26.3768127 21.6641158 26.3925663 21.8724691 26.3768127 22.1153785 26.3498792 22.2967983 26.3031268 22.4548419 26.2416372 22.6011974 26.164394 22.728242 26.0759709 22.8410577 25.9758597 22.9371035 25.8676177 23.0219693 25.7481957 23.0956552 25.6252164 23.1530794 25.4971554 23.2028809 25.3660453 23.2415025 25.2313779 23.2725014 25.1002678 23.2963858 24.9722068 23.3075658 24.8451621 23.3151884 24.7262483 23.3187457 24.5600738 23.3187457 24.4055875 23.3151884 24.270412 23.3151884 24.1433673 23.3116312 24.0275025 23.3075658 23.9233259 23.2994349 23.8308374 23.2918122 23.7424143 23.2801241 23.6611057 23.2725014 23.5874198 23.2572561 23.5152584 23.2450598 23.448687 23.2262572 23.3831319 23.2110118 23.3216423 23.1871274 23.2601527 23.1647675 23.1945976 23.1413913 23.3683948 22.2891756 23.4029509 22.2967983 23.4456379 22.3084864 23.4995049 22.3232236 23.5650599 22.3394853 23.6341722 22.3547307 23.7109072 22.369976 23.7962812 22.3887786 23.8882616 22.4045322 23.9848155 22.4197776 24.0849267 22.4355311 24.1901197 22.446711 24.2973454 22.4583991 24.4096529 22.4619564 24.5214522 22.4660218 24.6337597 22.4660218 24.7450509 22.4619564 24.8568502 22.4395965 24.9462896 22.4080894 25.0159101 22.3664188 25.0692689 22.3120437 25.1073823 22.2581767 25.137873 22.1956707 25.157692 22.1346893 25.1739537 22.0767569 25.18056 21.9644494 25.1460039 21.8684036 25.0804488 21.7906523 24.9838949 21.7256054 24.8690465 21.6681812 24.7328546 21.6097407 24.5829419 21.5553656 24.432521 21.4943841 24.2785428 21.4247636 24.1316792 21.3439632 23.9965036 21.243852 23.8735244 21.1239218 23.7764623 20.9770582 23.7078581 20.8032611 23.6727938 20.5959242 23.6768592 20.3489493 23.6956618 20.1980202 23.7225953 20.055222 23.7612169 19.9241119 23.8079693 19.8011327 23.869459 19.6852679 23.9390794 19.5846485 24.020388 19.4880946 24.1164338 19.4037369 24.2287413 19.3305592 24.3517206 19.2685614 24.4909615 19.2111372 24.6454479 19.1684502 24.8182286 19.1333858 25.0077793 19.1064524 25.2156244 19.091207 25.4437966 19.0866334 25.5855785 19.0866334 25.7166886 19.091207 25.8366188 19.0952724 25.9448608 19.0988297 26.0414148 19.1064524 26.130346 19.114075 26.207081 19.1216977 26.2761933 19.1298286 26.3417484 19.1374513 26.3956153 19.1486312 26.4469414 19.156762 26.4926775 19.1643847 26.5302827 19.1714992 26.5663634 19.1760728 26.6009195 19.1836955 26.6309021 19.1877609"></polygon>
                <polyline id="Stroke-34" stroke="#FFFFFF" stroke-width="0.216" points="26.4342369 20.0587793 26.4342369 20.0587793 26.3808781 20.055222 26.3259948 20.0475993 26.2761933 20.0399766 26.2269 20.0318458 26.1801476 20.0247313 26.130346 20.0166004 26.0800364 20.0094859 26.0251531 20.0013551 25.9717943 19.9942406 25.9103047 19.989667 25.8406842 19.9856015 25.7680146 19.9820443 25.686706 19.9820443 25.5977748 19.9856015 25.4971554 19.9942406 25.3858642 20.0013551 25.3086211 20.0130432 25.2354433 20.0247313 25.1698883 20.0475993 25.1109396 20.0704674 25.0575808 20.097909 25.0077793 20.1283997 24.9691577 20.1675295 24.9346015 20.2020857 24.9107171 20.2442645 24.8908982 20.2869515 24.8837837 20.3331958 24.8837837 20.37944 24.89598 20.4297497 24.9107171 20.4795512 24.9412079 20.5298609 24.9803376 20.5801706 25.0575808 20.6528402 25.1510857 20.7112807 25.2583114 20.7610822 25.3741761 20.8032611 25.4971554 20.8423908 25.6252164 20.8845697 25.7522611 20.9313221 25.8752403 20.9811236 25.9916133 21.0466787 26.098839 21.1274791 26.1959011 21.2245412 26.2761933 21.3439632 26.3381911 21.4903187 26.3768127 21.6641158 26.3925663 21.8724691 26.3768127 22.1153785 26.3498792 22.2967983 26.3031268 22.4548419 26.2416372 22.6011974 26.164394 22.728242 26.0759709 22.8410577 25.9758597 22.9371035 25.8676177 23.0219693 25.7481957 23.0956552 25.6252164 23.1530794 25.4971554 23.2028809 25.3660453 23.2415025 25.2313779 23.2725014 25.1002678 23.2963858 24.9722068 23.3075658 24.8451621 23.3151884 24.7262483 23.3187457 24.5600738 23.3187457 24.4055875 23.3151884 24.270412 23.3151884 24.1433673 23.3116312 24.0275025 23.3075658 23.9233259 23.2994349 23.8308374 23.2918122 23.7424143 23.2801241 23.6611057 23.2725014 23.5874198 23.2572561 23.5152584 23.2450598 23.448687 23.2262572 23.3831319 23.2110118 23.3216423 23.1871274 23.2601527 23.1647675 23.1945976 23.1413913 23.3683948 22.2891756 23.4029509 22.2967983 23.4456379 22.3084864 23.4995049 22.3232236 23.5650599 22.3394853 23.6341722 22.3547307 23.7109072 22.369976 23.7962812 22.3887786 23.8882616 22.4045322 23.9848155 22.4197776 24.0849267 22.4355311 24.1901197 22.446711 24.2973454 22.4583991 24.4096529 22.4619564 24.5214522 22.4660218 24.6337597 22.4660218 24.7450509 22.4619564 24.8568502 22.4395965 24.9462896 22.4080894 25.0159101 22.3664188 25.0692689 22.3120437 25.1073823 22.2581767 25.137873 22.1956707 25.157692 22.1346893 25.1739537 22.0767569 25.18056 21.9644494 25.1460039 21.8684036 25.0804488 21.7906523 24.9838949 21.7256054 24.8690465 21.6681812 24.7328546 21.6097407 24.5829419 21.5553656 24.432521 21.4943841 24.2785428 21.4247636 24.1316792 21.3439632 23.9965036 21.243852 23.8735244 21.1239218 23.7764623 20.9770582 23.7078581 20.8032611 23.6727938 20.5959242 23.6768592 20.3489493 23.6956618 20.1980202 23.7225953 20.055222 23.7612169 19.9241119 23.8079693 19.8011327 23.869459 19.6852679 23.9390794 19.5846485 24.020388 19.4880946 24.1164338 19.4037369 24.2287413 19.3305592 24.3517206 19.2685614 24.4909615 19.2111372 24.6454479 19.1684502 24.8182286 19.1333858 25.0077793 19.1064524 25.2156244 19.091207 25.4437966 19.0866334 25.5855785 19.0866334 25.7166886 19.091207 25.8366188 19.0952724 25.9448608 19.0988297 26.0414148 19.1064524 26.130346 19.114075 26.207081 19.1216977 26.2761933 19.1298286 26.3417484 19.1374513 26.3956153 19.1486312 26.4469414 19.156762 26.4926775 19.1643847 26.5302827 19.1714992 26.5663634 19.1760728 26.6009195 19.1836955 26.6309021 19.1877609 26.4342369 20.0587793"></polyline>
                <polygon id="Fill-36" fill="#FFFFFF" points="27.3493143 18.2349767 28.417506 18.2349767 28.2594624 19.168501 28.903833 19.168501 28.764592 20.0400275 28.0856653 20.0207167 27.7157112 22.1728535 27.7116457 22.2500967 27.7304484 22.3161599 27.7690699 22.3659614 27.8198878 22.4081403 27.8890001 22.4355819 27.9667515 22.45845 28.0511091 22.4736953 28.1430895 22.4818262 28.2284635 22.4782689 28.3062148 22.4701381 28.374819 22.45845 28.4373249 22.4432046 28.4866183 22.427451 28.5216826 22.4162711 28.5445506 22.4081403 28.5521733 22.404583 28.417506 23.1221313 28.3905725 23.1414421 28.363639 23.1566875 28.3356892 23.1719329 28.3092639 23.1871782 28.2823304 23.1988663 28.2513315 23.2110626 28.2167754 23.2222426 28.1822192 23.2339307 28.1430895 23.2451106 28.1044679 23.2532415 28.0587318 23.2608641 28.0124875 23.268995 27.9616697 23.2766177 27.9042455 23.2842404 27.8427558 23.291863 27.7772008 23.2994857 27.4844899 23.2994857 27.3294953 23.2877976 27.1943198 23.2725522 27.0713406 23.2496842 26.9671639 23.2222426 26.8777245 23.1871782 26.8055631 23.149573 26.740008 23.1028206 26.6891902 23.0525109 26.6505686 22.9986439 26.6236351 22.9330889 26.6038161 22.8670256 26.5931444 22.7943561 26.589079 22.7130475 26.589079 22.6286898 26.6007671 22.5397585 26.611947 22.4432046"></polygon>
                <polyline id="Stroke-38" stroke="#FFFFFF" stroke-width="0.216" points="27.3493143 18.2349767 28.417506 18.2349767 28.2594624 19.168501 28.903833 19.168501 28.764592 20.0400275 28.0856653 20.0207167 27.7157112 22.1728535 27.7116457 22.2500967 27.7304484 22.3161599 27.7690699 22.3659614 27.8198878 22.4081403 27.8890001 22.4355819 27.9667515 22.45845 28.0511091 22.4736953 28.1430895 22.4818262 28.2284635 22.4782689 28.3062148 22.4701381 28.374819 22.45845 28.4373249 22.4432046 28.4866183 22.427451 28.5216826 22.4162711 28.5445506 22.4081403 28.5521733 22.404583 28.417506 23.1221313 28.3905725 23.1414421 28.363639 23.1566875 28.3356892 23.1719329 28.3092639 23.1871782 28.2823304 23.1988663 28.2513315 23.2110626 28.2167754 23.2222426 28.1822192 23.2339307 28.1430895 23.2451106 28.1044679 23.2532415 28.0587318 23.2608641 28.0124875 23.268995 27.9616697 23.2766177 27.9042455 23.2842404 27.8427558 23.291863 27.7772008 23.2994857 27.4844899 23.2994857 27.3294953 23.2877976 27.1943198 23.2725522 27.0713406 23.2496842 26.9671639 23.2222426 26.8777245 23.1871782 26.8055631 23.149573 26.740008 23.1028206 26.6891902 23.0525109 26.6505686 22.9986439 26.6236351 22.9330889 26.6038161 22.8670256 26.5931444 22.7943561 26.589079 22.7130475 26.589079 22.6286898 26.6007671 22.5397585 26.611947 22.4432046 27.3493143 18.2349767"></polyline>
                <polyline id="Stroke-40" stroke="#FFFFFF" stroke-width="0.216" points="29.7552356 21.4942317 29.7552356 21.4942317 29.745072 21.5592785 29.7415148 21.6283908 29.7471047 21.7020768 29.7633665 21.7757627 29.7908081 21.8489404 29.821807 21.9190691 29.8634777 21.9917386 29.9102301 22.0572937 29.9646052 22.1233569 30.0220294 22.1817975 30.0835191 22.2387135 30.1531395 22.2849577 30.2217437 22.3276448 30.3000032 22.3622009 30.3767382 22.3891344 30.4539813 22.4048879 30.5551089 22.4196251 30.6506465 22.4318214 30.7507577 22.4430013 30.8518853 22.4511322 30.9514883 22.4546894 31.0556649 22.4546894 31.1567925 22.4511322 31.2599528 22.4430013 31.3641294 22.427756 31.4693224 22.407937 31.5765481 22.3850689 31.6807247 22.3505128 31.7889668 22.308334 31.9012743 22.2615815 32.0085 22.2000919 32.1213157 22.1345368 31.9668294 23.0838147 31.9048316 23.1143054 31.8423256 23.1458125 31.7808359 23.1681723 31.7234118 23.1920567 31.6659876 23.2108594 31.6034816 23.2306783 31.541992 23.2449073 31.4764369 23.2571036 31.4068164 23.2687917 31.3295733 23.2769226 31.2487728 23.2840371 31.1598416 23.2916598 31.0592222 23.2962334 30.9550455 23.2962334 30.8361317 23.2992824 30.709087 23.2992824 30.5195364 23.2962334 30.3269367 23.2769226 30.1343369 23.2494809 29.9407208 23.2027285 29.7521865 23.1458125 29.5707667 23.0716184 29.3969696 22.9755726 29.2353688 22.8632651 29.0844397 22.7326632 28.9533296 22.5741114 28.8420385 22.3967571 28.7490418 22.1924692 28.6834867 21.9648052 28.6407997 21.7061422 28.6296198 21.4205458 28.6484224 21.1044586 28.6646841 20.9809712 28.687044 20.8381729 28.7180429 20.6882602 28.7607299 20.525643 28.8191704 20.360485 28.8877745 20.1943105 28.977214 20.0245788 29.0844397 19.862978 29.2084353 19.7079835 29.358348 19.561628 29.5280797 19.4305179 29.7216958 19.3151614 29.9447863 19.2180992 30.1958266 19.1489869 30.4738003 19.1027427 30.7863302 19.0869891 30.9362429 19.0910545 31.0953029 19.1062999 31.2518219 19.1332334 31.4108818 19.171855 31.5658764 19.2302955 31.7152809 19.2994078 31.8545219 19.3918963 31.9815665 19.4996302 32.0974313 19.6312485 32.1939852 19.7857348 32.2712284 19.9630892 32.3250953 20.1673771 32.3555861 20.3980902 32.3596515 20.6603104 32.332718 20.9540377 32.2752938 21.2782557 32.2554749 21.5135425 29.4437221 21.5135425 29.6210764 20.7533071 31.3107706 20.7533071 31.3183933 20.6572613 31.3143279 20.5647728 31.3067052 20.4793988 31.2914599 20.403172 31.2640182 20.3294861 31.2370847 20.2634228 31.1984631 20.2054905 31.1598416 20.1516235 31.1141055 20.1058874 31.0632876 20.0667577 31.0058634 20.0322015 30.9474229 20.0012026 30.8869496 19.9788427 30.8244436 19.9630892 30.7588886 19.9514011 30.6902844 19.9432702 30.6155822 19.9473357 30.5474862 19.9590238 30.4819312 19.9747773 30.4163761 19.9976454 30.3498047 20.0281361 30.2923805 20.0632004 30.2334318 20.1058874 30.1851548 20.1516235 30.1343369 20.2054905 30.0875845 20.2634228 30.0459138 20.3254206 30.0103413 20.3914839 29.9757852 20.4605962 29.9488517 20.5378393 29.9259837 20.6150825 29.9102301 20.6958829 29.7552356 21.4942317"></polyline>
                <polygon id="Fill-42" fill="#FFFFFF" points="38.9560653 19.3997223 38.9052474 19.3727888 38.8559541 19.3494126 38.8020871 19.3224791 38.7436466 19.2950375 38.6862224 19.2726776 38.6206673 19.2493014 38.5551123 19.2259252 38.4854918 19.2030571 38.412314 19.1837463 38.3386281 19.168501 38.2573195 19.1527474 38.1770273 19.1410593 38.0886042 19.1334366 37.9991647 19.125814 37.9071844 19.125814 37.8106304 19.125814 37.7145847 19.125814 37.6129489 19.1334366 37.5097886 19.1456329 37.4005302 19.1644355 37.2938127 19.1949263 37.1855706 19.2376133 37.0783449 19.2919884 36.9690865 19.3605925 36.8649099 19.4459666 36.7647987 19.5460778 36.6682447 19.6695652 36.5757562 19.8123634 36.4903822 19.9820951 36.4100899 20.1746948 36.3379285 20.3916871 36.2754226 20.6381538 36.2525545 20.7763784 36.2362928 20.911554 36.2286701 21.0467295 36.2327355 21.1783478 36.2444237 21.3089497 36.2713571 21.4324371 36.3059133 21.5483019 36.3486003 21.6641666 36.4060245 21.7683433 36.475645 21.8679463 36.5569536 21.9568776 36.6494421 22.0381862 36.7536187 22.1078066 36.8725325 22.1652308 37.0036427 22.2155405 37.1515227 22.2500967 37.2013242 22.2612766 37.2587484 22.2729647 37.3283688 22.2810956 37.405612 22.2892264 37.4899697 22.2968491 37.5783928 22.2968491 37.6754549 22.2968491 37.7720089 22.2892264 37.8721201 22.2770302 37.9722313 22.2582275 38.0687852 22.2307859 38.164831 22.2002952 38.261385 22.1576082 38.3508244 22.1078066 38.4311167 22.046317 38.5083598 21.9766965 38.3345627 23.0067748 38.3116947 23.0255774 38.2883184 23.0489536 38.2573195 23.0763953 38.2227634 23.0982469 38.1810927 23.1292458 38.1262094 23.1566875 38.0647198 23.183621 37.9950993 23.206489 37.9071844 23.2339307 37.806565 23.2532415 37.6907003 23.268995 37.5555247 23.2842404 37.405612 23.291863 37.2318149 23.2959285 37.0356579 23.291863 36.8181574 23.2801749 36.6413112 23.2608641 36.4639569 23.2222426 36.2860943 23.1648184 36.1092481 23.087067 35.9395164 22.9950867 35.7779156 22.8787137 35.6229211 22.7440464 35.4801229 22.5900682 35.3530782 22.4162711 35.2448361 22.2236714 35.1528558 22.0076954 35.0832353 21.7719005 35.0374992 21.5137457 35.0217457 21.2398374 35.0293684 20.9389956 35.071039 20.6183348 35.1030543 20.4607994 35.1376104 20.3063131 35.1757238 20.1558922 35.2143454 20.013094 35.2570324 19.8779185 35.3063258 19.7432511 35.3571436 19.6156982 35.4105024 19.4962762 35.4694511 19.3768542 35.5268753 19.2645468 35.5924304 19.1568129 35.6620509 19.0567017 35.7311632 18.9596395 35.8078981 18.8676592 35.8851413 18.7827933 35.9664499 18.7014847 36.054873 18.6242416 36.1443125 18.5510638 36.2362928 18.4855088 36.3338631 18.423511 36.4370234 18.3655786 36.5412 18.3162853 36.6494421 18.2695328 36.7617496 18.2268458 36.8806634 18.1882242 36.9995772 18.1577335 37.124081 18.1302919 37.2546829 18.107932 37.385793 18.0876049 37.525034 18.0728677 37.6637668 18.0657532 37.8106304 18.0606714 37.9336097 18.0657532 38.054048 18.0728677 38.1688964 18.0845558 38.2852694 18.0998011 38.3935114 18.1150465 38.4976881 18.1384227 38.5967829 18.1577335 38.6902878 18.1806016 38.7782027 18.2034696 38.8559541 18.2268458 38.9291318 18.250222 38.9906214 18.2730901 39.0444884 18.2924009 39.0912408 18.3081544 39.1257969 18.3233998 39.1496813 18.3315306"></polygon>
                <polyline id="Stroke-44" stroke="#FFFFFF" stroke-width="0.216" points="38.9560653 19.3997223 38.9560653 19.3997223 38.9052474 19.3727888 38.8559541 19.3494126 38.8020871 19.3224791 38.7436466 19.2950375 38.6862224 19.2726776 38.6206673 19.2493014 38.5551123 19.2259252 38.4854918 19.2030571 38.412314 19.1837463 38.3386281 19.168501 38.2573195 19.1527474 38.1770273 19.1410593 38.0886042 19.1334366 37.9991647 19.125814 37.9071844 19.125814 37.8106304 19.125814 37.7145847 19.125814 37.6129489 19.1334366 37.5097886 19.1456329 37.4005302 19.1644355 37.2938127 19.1949263 37.1855706 19.2376133 37.0783449 19.2919884 36.9690865 19.3605925 36.8649099 19.4459666 36.7647987 19.5460778 36.6682447 19.6695652 36.5757562 19.8123634 36.4903822 19.9820951 36.4100899 20.1746948 36.3379285 20.3916871 36.2754226 20.6381538 36.2525545 20.7763784 36.2362928 20.911554 36.2286701 21.0467295 36.2327355 21.1783478 36.2444237 21.3089497 36.2713571 21.4324371 36.3059133 21.5483019 36.3486003 21.6641666 36.4060245 21.7683433 36.475645 21.8679463 36.5569536 21.9568776 36.6494421 22.0381862 36.7536187 22.1078066 36.8725325 22.1652308 37.0036427 22.2155405 37.1515227 22.2500967 37.2013242 22.2612766 37.2587484 22.2729647 37.3283688 22.2810956 37.405612 22.2892264 37.4899697 22.2968491 37.5783928 22.2968491 37.6754549 22.2968491 37.7720089 22.2892264 37.8721201 22.2770302 37.9722313 22.2582275 38.0687852 22.2307859 38.164831 22.2002952 38.261385 22.1576082 38.3508244 22.1078066 38.4311167 22.046317 38.5083598 21.9766965 38.3345627 23.0067748 38.3116947 23.0255774 38.2883184 23.0489536 38.2573195 23.0763953 38.2227634 23.0982469 38.1810927 23.1292458 38.1262094 23.1566875 38.0647198 23.183621 37.9950993 23.206489 37.9071844 23.2339307 37.806565 23.2532415 37.6907003 23.268995 37.5555247 23.2842404 37.405612 23.291863 37.2318149 23.2959285 37.0356579 23.291863 36.8181574 23.2801749 36.6413112 23.2608641 36.4639569 23.2222426 36.2860943 23.1648184 36.1092481 23.087067 35.9395164 22.9950867 35.7779156 22.8787137 35.6229211 22.7440464 35.4801229 22.5900682 35.3530782 22.4162711 35.2448361 22.2236714 35.1528558 22.0076954 35.0832353 21.7719005 35.0374992 21.5137457 35.0217457 21.2398374 35.0293684 20.9389956 35.071039 20.6183348 35.1030543 20.4607994 35.1376104 20.3063131 35.1757238 20.1558922 35.2143454 20.013094 35.2570324 19.8779185 35.3063258 19.7432511 35.3571436 19.6156982 35.4105024 19.4962762 35.4694511 19.3768542 35.5268753 19.2645468 35.5924304 19.1568129 35.6620509 19.0567017 35.7311632 18.9596395 35.8078981 18.8676592 35.8851413 18.7827933 35.9664499 18.7014847 36.054873 18.6242416 36.1443125 18.5510638 36.2362928 18.4855088 36.3338631 18.423511 36.4370234 18.3655786 36.5412 18.3162853 36.6494421 18.2695328 36.7617496 18.2268458 36.8806634 18.1882242 36.9995772 18.1577335 37.124081 18.1302919 37.2546829 18.107932 37.385793 18.0876049 37.525034 18.0728677 37.6637668 18.0657532 37.8106304 18.0606714 37.9336097 18.0657532 38.054048 18.0728677 38.1688964 18.0845558 38.2852694 18.0998011 38.3935114 18.1150465 38.4976881 18.1384227 38.5967829 18.1577335 38.6902878 18.1806016 38.7782027 18.2034696 38.8559541 18.2268458 38.9291318 18.250222 38.9906214 18.2730901 39.0444884 18.2924009 39.0912408 18.3081544 39.1257969 18.3233998 39.1496813 18.3315306 38.9560653 19.3997223"></polyline>
                <polygon id="Fill-46" fill="#FFFFFF" points="48.4526549 23.2993841 47.3844633 23.2993841 47.4622146 22.8714976 47.4622146 22.832876 47.3997086 22.9101192 47.3351699 22.9792315 47.2696149 23.0407211 47.1999944 23.0956044 47.1293576 23.1454059 47.0602453 23.1870766 46.9906248 23.2221409 46.917447 23.2572052 46.8447775 23.2841387 46.7710916 23.3034495 46.6979138 23.3222521 46.6206707 23.3334321 46.5429193 23.3456283 46.4697416 23.353251 46.3930066 23.3573165 46.3157634 23.3573165 46.1150328 23.3415629 45.930564 23.2993841 45.7608323 23.233829 45.6058378 23.1454059 45.467105 23.0330984 45.3441257 22.9024965 45.2358837 22.7591901 45.1433952 22.5975893 45.066152 22.423284 45.0046624 22.2428805 44.9619754 22.0538381 44.9309765 21.8566647 44.9203047 21.6599996 44.9233538 21.4597771 44.9431727 21.263112 44.9777289 21.0664468 45.0351531 20.8382746 45.1057899 20.6222986 45.1850658 20.4256335 45.2826361 20.2406564 45.3827473 20.0668593 45.4981039 19.912373 45.6180341 19.7741484 45.7450787 19.6465955 45.8802543 19.534288 46.0230525 19.4382422 46.1699161 19.3533764 46.3157634 19.2878213 46.4697416 19.2334462 46.6242279 19.1993982 46.7792224 19.176022 46.937266 19.1683993 47.0490653 19.1714484 47.156291 19.1836447 47.2574186 19.2029555 47.3509235 19.2303971 47.4383302 19.261396 47.5155734 19.295444 47.5933247 19.338131 47.662437 19.380818 47.7239266 19.4260459 47.781859 19.4768638 47.8311524 19.5271735 47.8779048 19.576975 47.9165264 19.6272847 47.9526071 19.6775944 47.9820814 19.7238387 48.0059658 19.7700829 48.2758087 18.2541858 49.3251978 18.2541858"></polygon>
                <polyline id="Stroke-48" stroke="#FFFFFF" stroke-width="0.216" points="48.4526549 23.2993841 47.3844633 23.2993841 47.4622146 22.8714976 47.4622146 22.832876 47.3997086 22.9101192 47.3351699 22.9792315 47.2696149 23.0407211 47.1999944 23.0956044 47.1293576 23.1454059 47.0602453 23.1870766 46.9906248 23.2221409 46.917447 23.2572052 46.8447775 23.2841387 46.7710916 23.3034495 46.6979138 23.3222521 46.6206707 23.3334321 46.5429193 23.3456283 46.4697416 23.353251 46.3930066 23.3573165 46.3157634 23.3573165 46.1150328 23.3415629 45.930564 23.2993841 45.7608323 23.233829 45.6058378 23.1454059 45.467105 23.0330984 45.3441257 22.9024965 45.2358837 22.7591901 45.1433952 22.5975893 45.066152 22.423284 45.0046624 22.2428805 44.9619754 22.0538381 44.9309765 21.8566647 44.9203047 21.6599996 44.9233538 21.4597771 44.9431727 21.263112 44.9777289 21.0664468 45.0351531 20.8382746 45.1057899 20.6222986 45.1850658 20.4256335 45.2826361 20.2406564 45.3827473 20.0668593 45.4981039 19.912373 45.6180341 19.7741484 45.7450787 19.6465955 45.8802543 19.534288 46.0230525 19.4382422 46.1699161 19.3533764 46.3157634 19.2878213 46.4697416 19.2334462 46.6242279 19.1993982 46.7792224 19.176022 46.937266 19.1683993 47.0490653 19.1714484 47.156291 19.1836447 47.2574186 19.2029555 47.3509235 19.2303971 47.4383302 19.261396 47.5155734 19.295444 47.5933247 19.338131 47.662437 19.380818 47.7239266 19.4260459 47.781859 19.4768638 47.8311524 19.5271735 47.8779048 19.576975 47.9165264 19.6272847 47.9526071 19.6775944 47.9820814 19.7238387 48.0059658 19.7700829 48.2758087 18.2541858 49.3251978 18.2541858 48.4526549 23.2993841"></polyline>
                <polygon id="Fill-50" fill="#FBB231" points="46.7057906 22.3661647 46.8140327 22.358542 46.9141439 22.3351658 47.0066324 22.3082323 47.0960719 22.2660535 47.1763641 22.2198092 47.2536073 22.1613687 47.3262768 22.0963218 47.3928482 22.0261931 47.4502724 21.94895 47.5036312 21.8640841 47.554449 21.775661 47.5971361 21.6836807 47.6347413 21.5866186 47.6667565 21.4865073 47.6931818 21.3823307 47.7119844 21.2781541 47.7312952 21.1704202 47.7439997 21.0586209 47.7439997 20.9539361 47.7389179 20.8462022 47.7282462 20.746091 47.7119844 20.649537 47.6855592 20.5565403 47.6545603 20.4681172 47.6159387 20.3913822 47.5702026 20.3176963 47.5198929 20.2556985 47.4619605 20.2018316 47.3964055 20.1555873 47.3262768 20.1245884 47.2536073 20.1057858 47.1722987 20.0976549 47.068122 20.1057858 46.9715681 20.1210312 46.8836531 20.1520301 46.7942137 20.1901435 46.7164624 20.2404531 46.6402355 20.302451 46.5746805 20.368006 46.5091254 20.4411837 46.4506849 20.5255414 46.3973261 20.6149809 46.3465083 20.7069612 46.3038212 20.8075806 46.266216 20.911249 46.2352171 21.016442 46.2047264 21.127225 46.180842 21.2395325 46.161023 21.4097724 46.1696621 21.5947494 46.1965955 21.7832837 46.246397 21.9647035 46.3236402 22.1232553 46.4237514 22.2503 46.5507961 22.3351658"></polygon>
                <polygon id="Fill-52" fill="#FFFFFF" points="23.0169384 22.443103 22.8619438 23.2993841 21.8903062 23.2993841 21.9172396 23.1413405 21.9370586 22.9985423 21.9517958 22.8903002 21.9680575 22.832876 21.9141906 22.8943656 21.8516846 22.9563635 21.779015 23.0142958 21.6977064 23.0676546 21.6057261 23.1220297 21.5081558 23.168274 21.4080446 23.2145182 21.3048843 23.2531398 21.1925768 23.287696 21.0802693 23.3151376 20.9694863 23.3385138 20.8531134 23.3537592 20.7408059 23.3613819 20.6300229 23.3649391 20.5217809 23.3537592 20.4165879 23.3385138 20.2814124 23.3034495 20.1584331 23.2648279 20.050191 23.2145182 19.9541453 23.1565859 19.8697876 23.0956044 19.7920363 23.0254758 19.7305466 22.9517898 19.6761715 22.875563 19.6304354 22.7942544 19.5918138 22.7088804 19.5608149 22.6245228 19.5379469 22.5396569 19.5221934 22.4512338 19.5105052 22.3617944 19.5023744 22.2769285 19.5023744 22.1920627 19.5140625 22.0411336 19.5379469 21.8993517 19.5760603 21.7641762 19.62637 21.6325579 19.6878596 21.5095787 19.7574801 21.3977793 19.8387887 21.2900455 19.9312772 21.1934915 20.027323 21.1045602 20.1355651 21.0232516 20.2468562 20.9500739 20.3627209 20.8880761 20.4862084 20.8352255 20.6137612 20.7920303 20.7448713 20.7574742 20.8800469 20.7340979 20.8881777 20.7340979 20.9069803 20.7300325 20.9334056 20.7264753 20.9760927 20.722918 21.0228451 20.7152953 21.076712 20.7112299 21.1341362 20.703099 21.2007076 20.6959845 21.2662627 20.6883619 21.3318177 20.6807392 21.4009301 20.6761656 21.4624197 20.6685429 21.5239093 20.6649856 21.5818417 20.660412 21.6352004 20.657363 21.6778875 20.657363 21.7673269 20.657363 21.8608318 20.660412 21.9451895 20.6649856 22.0295471 20.6649856 22.0986594 20.6685429 22.1535427 20.6726083 22.1911479 20.6761656 22.2028361 20.6761656 22.2109669 20.6492321 22.233835 20.5801198 22.2536539 20.4988112 22.2607684 20.4256335 22.2455231 20.3412758 22.2109669 20.2630163 22.1642145 20.1944122 22.1027249 20.1359716 22.0295471 20.0866783 21.9487467 20.0516139 21.85575 20.0282377 21.7556388 20.020615 21.6473967 20.0170578 21.5310238 20.0129924 21.41211 20.0129924 21.2891307 20.0170578 21.1620861 20.0246805 21.0375823 20.0358604 20.914603 20.0475485 20.7946729 20.0633021 20.6793163 20.0785474 20.567517 20.0978582 20.4668976 20.1166608 20.3749172 20.1359716 20.2895432 20.159856 20.2209391 20.182724 20.166564 20.2096575 20.123877 20.2325256 20.3977853 19.3030667 20.4831593 19.2685105 20.567517 19.2375116 20.6605137 19.2110864 20.7530022 19.1912674 20.8454907 19.1719566 20.9456019 19.1567112 21.0457131 19.1409577 21.1498898 19.133335 21.2581318 19.1257123 21.369423 19.1216469 21.4852877 19.1175815 21.6057261 19.1175815 21.7287053 19.1175815 21.85575 19.1175815 21.9904174 19.1216469 22.1255929 19.1257123 22.233835 19.133335 22.3502079 19.1526458 22.4701381 19.1800875 22.592101 19.2146436 22.7110148 19.261396 22.8284041 19.315263 22.9432524 19.380818 23.0514945 19.4534876 23.1480485 19.5388616 23.2334225 19.6313501 23.3106656 19.7350186 23.3680898 19.8508833 23.4072196 19.974879 23.4295795 20.1054809 23.4295795 20.2518364 23.4072196 20.4063227"></polygon>
                <polyline id="Stroke-54" stroke="#FFFFFF" stroke-width="0.216" points="23.0169384 22.443103 22.8619438 23.2993841 21.8903062 23.2993841 21.9172396 23.1413405 21.9370586 22.9985423 21.9517958 22.8903002 21.9680575 22.832876 21.9141906 22.8943656 21.8516846 22.9563635 21.779015 23.0142958 21.6977064 23.0676546 21.6057261 23.1220297 21.5081558 23.168274 21.4080446 23.2145182 21.3048843 23.2531398 21.1925768 23.287696 21.0802693 23.3151376 20.9694863 23.3385138 20.8531134 23.3537592 20.7408059 23.3613819 20.6300229 23.3649391 20.5217809 23.3537592 20.4165879 23.3385138 20.2814124 23.3034495 20.1584331 23.2648279 20.050191 23.2145182 19.9541453 23.1565859 19.8697876 23.0956044 19.7920363 23.0254758 19.7305466 22.9517898 19.6761715 22.875563 19.6304354 22.7942544 19.5918138 22.7088804 19.5608149 22.6245228 19.5379469 22.5396569 19.5221934 22.4512338 19.5105052 22.3617944 19.5023744 22.2769285 19.5023744 22.1920627 19.5140625 22.0411336 19.5379469 21.8993517 19.5760603 21.7641762 19.62637 21.6325579 19.6878596 21.5095787 19.7574801 21.3977793 19.8387887 21.2900455 19.9312772 21.1934915 20.027323 21.1045602 20.1355651 21.0232516 20.2468562 20.9500739 20.3627209 20.8880761 20.4862084 20.8352255 20.6137612 20.7920303 20.7448713 20.7574742 20.8800469 20.7340979 20.8881777 20.7340979 20.9069803 20.7300325 20.9334056 20.7264753 20.9760927 20.722918 21.0228451 20.7152953 21.076712 20.7112299 21.1341362 20.703099 21.2007076 20.6959845 21.2662627 20.6883619 21.3318177 20.6807392 21.4009301 20.6761656 21.4624197 20.6685429 21.5239093 20.6649856 21.5818417 20.660412 21.6352004 20.657363 21.6778875 20.657363 21.7673269 20.657363 21.8608318 20.660412 21.9451895 20.6649856 22.0295471 20.6649856 22.0986594 20.6685429 22.1535427 20.6726083 22.1911479 20.6761656 22.2028361 20.6761656 22.2109669 20.6492321 22.233835 20.5801198 22.2536539 20.4988112 22.2607684 20.4256335 22.2455231 20.3412758 22.2109669 20.2630163 22.1642145 20.1944122 22.1027249 20.1359716 22.0295471 20.0866783 21.9487467 20.0516139 21.85575 20.0282377 21.7556388 20.020615 21.6473967 20.0170578 21.5310238 20.0129924 21.41211 20.0129924 21.2891307 20.0170578 21.1620861 20.0246805 21.0375823 20.0358604 20.914603 20.0475485 20.7946729 20.0633021 20.6793163 20.0785474 20.567517 20.0978582 20.4668976 20.1166608 20.3749172 20.1359716 20.2895432 20.159856 20.2209391 20.182724 20.166564 20.2096575 20.123877 20.2325256 20.3977853 19.3030667 20.4831593 19.2685105 20.567517 19.2375116 20.6605137 19.2110864 20.7530022 19.1912674 20.8454907 19.1719566 20.9456019 19.1567112 21.0457131 19.1409577 21.1498898 19.133335 21.2581318 19.1257123 21.369423 19.1216469 21.4852877 19.1175815 21.6057261 19.1175815 21.7287053 19.1175815 21.85575 19.1175815 21.9904174 19.1216469 22.1255929 19.1257123 22.233835 19.133335 22.3502079 19.1526458 22.4701381 19.1800875 22.592101 19.2146436 22.7110148 19.261396 22.8284041 19.315263 22.9432524 19.380818 23.0514945 19.4534876 23.1480485 19.5388616 23.2334225 19.6313501 23.3106656 19.7350186 23.3680898 19.8508833 23.4072196 19.974879 23.4295795 20.1054809 23.4295795 20.2518364 23.4072196 20.4063227 23.0169384 22.443103"></polyline>
                <polygon id="Fill-56" fill="#EC1C2E" points="22.087886 21.4361468 22.0838206 21.416836 22.0680671 21.3975253 22.045199 21.3858371 22.0065774 21.3787226 21.9638904 21.3711 21.9140889 21.3665264 21.8556484 21.3665264 21.7982242 21.3665264 21.7357182 21.3711 21.6701631 21.3787226 21.6086735 21.3858371 21.5471839 21.393968 21.4892515 21.4020989 21.4348764 21.4132788 21.3891403 21.4249669 21.3464533 21.4361468 21.3195198 21.4437695 21.2890291 21.4559658 21.2463421 21.4712112 21.2036551 21.4900138 21.1538536 21.51339 21.1035439 21.5408317 21.0496769 21.5672569 20.9988591 21.5982558 20.9455003 21.6368774 20.8956988 21.675499 20.8489463 21.7217433 20.8067675 21.7684957 20.7676377 21.8177891 20.7412125 21.8726724 20.7173281 21.9336538 20.7061481 21.9956516 20.7020827 22.1267617 20.7219017 22.2309383 20.7600151 22.3081815 20.8103248 22.3661139 20.8682571 22.4047355 20.9338122 22.4276035 20.9953018 22.4392916 21.0578078 22.4428489 21.1736725 22.4392916 21.2778492 22.4276035 21.3784686 22.41185 21.4653671 22.3889819 21.5441348 22.3620484 21.6162962 22.3274923 21.6818512 22.2929361 21.7402918 22.2502491 21.7911097 22.2116276 21.8368458 22.1653833 21.8754673 22.1232045 21.9064662 22.0769602 21.9328915 22.0302078 21.9557596 21.9844717 21.9755785 21.9417847 21.9867585 21.8990976 22.0182656 21.7878065 22.045199 21.6597455 22.0680671 21.5367662"></polygon>
                <polygon id="Fill-58" fill="#FFFFFF" points="14.9009686 23.2993841 13.8520878 23.2993841 14.7271715 18.234875 16.5525494 18.234875 16.7253302 21.2397358 17.9866297 18.234875 19.8922999 18.234875 18.9973972 23.2993841 17.9480082 23.2993841 18.6111814 19.5154854 18.5695107 19.5154854 16.9992385 23.2993841 15.8151821 23.2993841 15.8080676 23.1413405 15.7801178 22.7205685 15.7455616 22.1234585 15.7069401 21.4358927 15.6683185 20.7462942 15.6332541 20.1410534 15.6068288 19.7009706 15.598698 19.5154854 15.5880262 19.5154854 15.5651582 19.5154854 15.5412738 19.5154854"></polygon>
                <polyline id="Stroke-60" stroke="#FFFFFF" stroke-width="0.216" points="14.9009686 23.2993841 13.8520878 23.2993841 14.7271715 18.234875 16.5525494 18.234875 16.7253302 21.2397358 17.9866297 18.234875 19.8922999 18.234875 18.9973972 23.2993841 17.9480082 23.2993841 18.6111814 19.5154854 18.5695107 19.5154854 16.9992385 23.2993841 15.8151821 23.2993841 15.8080676 23.1413405 15.7801178 22.7205685 15.7455616 22.1234585 15.7069401 21.4358927 15.6683185 20.7462942 15.6332541 20.1410534 15.6068288 19.7009706 15.598698 19.5154854 15.5880262 19.5154854 15.5651582 19.5154854 15.5412738 19.5154854 14.9009686 23.2993841"></polyline>
                <polygon id="Fill-62" fill="#FFFFFF" points="42.1619615 22.443103 42.0039179 23.2993841 41.0353293 23.2993841 41.0434601 23.1413405 41.0475256 23.0026077 41.0475256 22.8984311 41.0551482 22.852695 41.0048385 22.9101192 40.9458898 22.9680516 40.8767775 23.0219185 40.8000425 23.0762936 40.7187339 23.1260951 40.6267536 23.1723394 40.5301996 23.2185837 40.4341539 23.2572052 40.3289609 23.287696 40.2217352 23.3186949 40.1134931 23.3385138 40.0062674 23.3537592 39.8929435 23.3613819 39.7857178 23.3649391 39.6805248 23.3537592 39.5773646 23.3385138 39.4386318 23.3034495 39.3151443 23.2648279 39.2074104 23.2145182 39.1067911 23.1565859 39.021417 23.0956044 38.9482393 23.0254758 38.8867497 22.9517898 38.8318664 22.875563 38.7861303 22.7942544 38.7515741 22.7088804 38.7210834 22.6245228 38.7017726 22.5396569 38.6860191 22.4512338 38.674331 22.3617944 38.6662001 22.2769285 38.6662001 22.1920627 38.674331 22.0411336 38.6982154 21.8993517 38.7327715 21.7641762 38.782573 21.6325579 38.8399972 21.5095787 38.9141913 21.3977793 38.9949917 21.2900455 39.0829067 21.1934915 39.1845424 21.1045602 39.2877027 21.0232516 39.399502 20.9500739 39.518924 20.8880761 39.6388542 20.8352255 39.7658989 20.7920303 39.8929435 20.7574742 40.0240536 20.7340979 40.0321845 20.7340979 40.0520035 20.7300325 40.0784288 20.7264753 40.1175585 20.722918 40.1668519 20.7152953 40.2217352 20.7112299 40.2791594 20.703099 40.340649 20.6959845 40.406204 20.6883619 40.4758245 20.6807392 40.5413796 20.6761656 40.6074428 20.6685429 40.6689324 20.6649856 40.7227994 20.660412 40.7761581 20.657363 40.8188451 20.657363 40.9113337 20.657363 41.0048385 20.660412 41.0927535 20.6649856 41.1781275 20.6649856 41.250797 20.6685429 41.313303 20.6726083 41.3478592 20.6761656 41.3641209 20.6761656 41.3707272 20.6492321 41.3829235 20.5801198 41.3935953 20.4988112 41.4017261 20.4256335 41.3859726 20.3412758 41.35599 20.2630163 41.3051722 20.1944122 41.2467316 20.1359716 41.1781275 20.0866783 41.0968189 20.0516139 41.0114449 20.0282377 40.9194645 20.020615 40.8112225 20.0170578 40.6958659 20.0129924 40.5759357 20.0129924 40.4529565 20.0170578 40.3248954 20.0246805 40.2019162 20.0358604 40.0784288 20.0475485 39.9584986 20.0633021 39.8436502 20.0785474 39.7313427 20.0978582 39.6317397 20.1166608 39.538743 20.1359716 39.4533689 20.159856 39.3837485 20.182724 39.3303897 20.2096575 39.2877027 20.2325256 39.5585619 19.3030667 39.6429196 19.2685105 39.7313427 19.2375116 39.8197658 19.2110864 39.9127625 19.1912674 40.0093165 19.1719566 40.1053622 19.1567112 40.2054734 19.1409577 40.3096501 19.133335 40.4178921 19.1257123 40.5301996 19.1216469 40.6414908 19.1175815 40.7604046 19.1175815 40.8808429 19.1175815 41.0048385 19.1175815 41.1354405 19.1216469 41.2665506 19.1257123 41.3747927 19.133335 41.4911656 19.1526458 41.6100794 19.1800875 41.734075 19.2146436 41.853497 19.261396 41.9724108 19.315263 42.0882756 19.380818 42.1965176 19.4534876 42.2930716 19.5388616 42.382511 19.6313501 42.4587378 19.7350186 42.516162 19.8508833 42.558849 19.974879 42.5857825 20.1054809 42.5857825 20.2518364 42.5669799 20.4063227"></polygon>
                <polygon id="Fill-64" fill="#FFFFFF" points="42.0041212 23.3266733 42.0269892 23.3032971 42.1845246 22.4470159 42.1382803 22.4393932 41.9802368 23.2961826 42.0041212 23.2722982 42.0041212 23.3266733 42.0229238 23.3226078 42.0269892 23.3032971"></polygon>
                <polygon id="Fill-66" fill="#FFFFFF" points="41.0115973 23.2993841 41.0354817 23.3268257 42.0040703 23.3268257 42.0040703 23.2724506 41.0354817 23.2724506 41.0583498 23.2993841 41.0115973 23.2993841 41.0085483 23.3268257 41.0354817 23.3268257"></polygon>
                <polygon id="Fill-68" fill="#FFFFFF" points="41.0741541 22.866924 41.039598 22.8364333 41.0233363 22.8984311 41.019779 23.0026077 41.019779 23.1413405 41.0116481 23.2993841 41.0584006 23.2993841 41.0660233 23.1413405 41.0741541 23.0026077 41.0690723 22.8984311 41.0690723 22.866924 41.0355325 22.8364333"></polygon>
                <polygon id="Fill-70" fill="#FFFFFF" points="39.5734008 23.3614327 39.5734008 23.3614327 39.6806265 23.3766781 39.7858195 23.387858 39.8930452 23.3848089 40.006369 23.3766781 40.117152 23.3614327 40.225394 23.3416137 40.3326198 23.3116312 40.4408618 23.2801241 40.5369076 23.2415025 40.637527 23.1957664 40.7295073 23.1495222 40.8113241 23.0956552 40.8926327 23.0407719 40.961745 22.9874132 41.0237428 22.9254154 41.0740525 22.8669748 41.0354309 22.8364841 40.984613 22.8944165 40.9312543 22.9487916 40.8616338 23.0026585 40.7884561 23.0565255 40.7066393 23.1027697 40.6146589 23.1495222 40.5221704 23.1957664 40.4261246 23.2338798 40.3249971 23.2648787 40.2177714 23.2963858 40.1095293 23.3151884 40.006369 23.3299256 39.8930452 23.3385647 39.7858195 23.3416137 39.6806265 23.3299256 39.5805153 23.3151884"></polygon>
                <polygon id="Fill-72" fill="#FFFFFF" points="38.6394191 22.1922151 38.6394191 22.1922151 38.6434845 22.277081 38.6511072 22.3619468 38.6622871 22.4549435 38.6780407 22.5433666 38.6978597 22.6282325 38.7288586 22.7171637 38.7634147 22.8055868 38.8132162 22.8868954 38.8675913 22.9676958 38.929081 23.0408736 39.0068323 23.1140513 39.0947472 23.1760491 39.1953666 23.2380469 39.3071659 23.2878484 39.4331943 23.32647 39.5734516 23.3615343 39.5805661 23.3152901 39.4423415 23.2802257 39.3234276 23.2416042 39.2182347 23.1918026 39.1176153 23.1374275 39.0363067 23.0764461 38.9671944 23.0098747 38.9051966 22.9366969 38.8518378 22.8635192 38.8101672 22.7827188 38.7745946 22.7014102 38.7435957 22.621118 38.7247931 22.5357439 38.7090396 22.4468127 38.6978597 22.3619468 38.690237 22.277081 38.6937942 22.1922151"></polygon>
                <polygon id="Fill-74" fill="#FFFFFF" points="40.0240536 20.7111283 40.0240536 20.7111283 39.8898945 20.7339963 39.7592925 20.7690606 39.6322479 20.8112395 39.5077441 20.8656146 39.3878139 20.9271042 39.2719491 21.0043474 39.1682807 21.085656 39.0681695 21.1781445 38.9751728 21.2741903 38.8943724 21.3824323 38.8171292 21.4982971 38.759705 21.62585 38.7088871 21.7564519 38.674331 21.8951847 38.6514629 22.0415401 38.6392667 22.1924692 38.69415 22.1924692 38.6982154 22.0415401 38.7210834 21.9033155 38.7556396 21.7722054 38.8054411 21.6410953 38.8638816 21.5211651 38.9335021 21.4129231 39.0148107 21.3051892 39.0991684 21.2091434 39.1982632 21.1237694 39.3034562 21.0424608 39.4106819 20.9738567 39.5306121 20.9113507 39.6459687 20.8579919 39.7740297 20.8158131 39.897009 20.7807488 40.0240536 20.7573725"></polygon>
                <polygon id="Fill-76" fill="#FFFFFF" points="40.8190484 20.6299721 40.8190484 20.6299721 40.7763614 20.6299721 40.7230026 20.638103 40.6691357 20.6426766 40.6076461 20.6457257 40.5410747 20.6528402 40.4755196 20.6574138 40.4064073 20.6650365 40.3408522 20.672151 40.2793626 20.68079 40.2214302 20.6884127 40.1670551 20.6919699 40.1172536 20.7001008 40.078632 20.7031499 40.0476331 20.7072153 40.0318796 20.7112807 40.0242569 20.7112807 40.0242569 20.757525 40.0318796 20.757525 40.055764 20.7534596 40.078632 20.7499023 40.1172536 20.7463451 40.1670551 20.7382142 40.2214302 20.7341488 40.2793626 20.7265261 40.3408522 20.7183952 40.4064073 20.7112807 40.4755196 20.7031499 40.5410747 20.7001008 40.6076461 20.6919699 40.6691357 20.6884127 40.7230026 20.6838391 40.7763614 20.6838391 40.8190484 20.6838391"></polygon>
                <polygon id="Fill-78" fill="#FFFFFF" points="41.3401349 20.6724051 41.3640193 20.6530943 41.3482657 20.6530943 41.3132014 20.649537 41.2506954 20.6454716 41.178534 20.6383571 41.09316 20.6383571 41.0047369 20.6383571 40.911232 20.6302262 40.8192517 20.6302262 40.8192517 20.6840932 40.911232 20.6840932 41.0047369 20.6840932 41.09316 20.6917158 41.178534 20.6917158 41.2506954 20.6917158 41.3132014 20.6957813 41.3482657 20.6998467 41.3640193 20.6998467 41.3858709 20.6805359 41.3640193 20.6998467 41.3828219 20.703404 41.3858709 20.6805359"></polygon>
                <polygon id="Fill-80" fill="#FFFFFF" points="41.3788581 20.4257351 41.3747927 20.4257351 41.3707272 20.4989128 41.3590391 20.576156 41.3478592 20.6457765 41.3402365 20.6722018 41.3859726 20.6803326 41.3935953 20.652891 41.4057916 20.5832705 41.4174797 20.4989128 41.429676 20.4257351 41.4245942 20.4257351"></polygon>
                <polygon id="Fill-82" fill="#FFFFFF" points="40.9193121 20.0438896 40.9193121 20.0474469 41.0087515 20.0515123 41.0890438 20.0748885 41.1662869 20.1094447 41.231842 20.1556889 41.2857089 20.2095559 41.3319532 20.2751109 41.3639684 20.3447314 41.3787056 20.4255318 41.4244417 20.4255318 41.4097045 20.3376169 41.3787056 20.2522429 41.3243305 20.1790652 41.2628409 20.1165592 41.189155 20.0632004 41.1037809 20.0281361 41.0153578 20.0057762 40.9193121 19.9940881 40.9193121 19.9976454"></polygon>
                <polygon id="Fill-84" fill="#FFFFFF" points="39.264733 20.2292224 39.3033546 20.2520904 39.3419762 20.2327797 39.3917777 20.2058462 39.4573327 20.18247 39.5427068 20.1601101 39.6351953 20.1407993 39.7353065 20.1209803 39.8471058 20.1016695 39.9583969 20.0869324 40.0788353 20.0706706 40.2018146 20.0589825 40.3247938 20.0478026 40.4528548 20.0401799 40.5758341 20.0401799 40.6957643 20.0401799 40.8111208 20.0401799 40.9193629 20.0437372 40.9193629 19.9974929 40.8111208 19.9939357 40.6957643 19.9858048 40.5758341 19.9858048 40.4528548 19.9939357 40.3247938 20.0010502 40.2018146 20.0127383 40.0788353 20.0249346 39.9583969 20.0401799 39.8394831 20.0549171 39.7271756 20.0747361 39.6270644 20.0940469 39.5345759 20.1133577 39.4502182 20.1362257 39.3770405 20.1601101 39.3180918 20.1865354 39.2718475 20.2134689 39.3114854 20.2368451"></polygon>
                <polygon id="Fill-86" fill="#FFFFFF" points="39.5505835 19.2798937 39.53483 19.2997127 39.2649871 20.2291716 39.3112314 20.2367943 39.5805661 19.3068272 39.5653207 19.3266462 39.5505835 19.2798937 39.5388954 19.2839592 39.53483 19.2997127"></polygon>
                <polygon id="Fill-88" fill="#FFFFFF" points="41.266703 19.1029459 41.266703 19.1029459 41.1355929 19.0953232 41.0044828 19.0912578 40.8804872 19.0912578 40.760557 19.0912578 40.6416432 19.0912578 40.5303521 19.0988805 40.4180446 19.1029459 40.3098025 19.1110768 40.2056259 19.1176831 40.1014493 19.1334366 40.0064198 19.148682 39.9088495 19.168501 39.8158528 19.1878118 39.7233643 19.2147452 39.6349412 19.245236 39.5505835 19.2797921 39.5653207 19.3265446 39.6506947 19.2919884 39.7391178 19.2614977 39.8234755 19.2335479 39.9169804 19.2147452 40.0130262 19.1949263 40.1095801 19.1796809 40.2056259 19.1644355 40.3098025 19.1568129 40.4180446 19.148682 40.5303521 19.1451248 40.6416432 19.1451248 40.760557 19.1451248 40.8804872 19.1451248 41.0044828 19.1451248 41.1355929 19.148682 41.266703 19.148682"></polygon>
                <polygon id="Fill-90" fill="#FFFFFF" points="42.5897463 20.4103881 42.5897463 20.4103881 42.6095653 20.2518364 42.6095653 20.1054809 42.5826318 19.9703053 42.5399448 19.8432607 42.4784552 19.7238387 42.401212 19.6161048 42.3077071 19.5195508 42.2116614 19.434685 42.1003702 19.3609991 41.9845055 19.2918868 41.861018 19.2375116 41.7410879 19.1912674 41.6140432 19.1567112 41.494113 19.1297778 41.374691 19.1109751 41.266449 19.1028443 41.266449 19.1490885 41.374691 19.1567112 41.4859822 19.176022 41.6059123 19.2029555 41.7263507 19.2375116 41.8452645 19.2837559 41.9606211 19.338131 42.0764858 19.3996207 42.1806625 19.4727984 42.2772164 19.5576642 42.3615741 19.6465955 42.4388172 19.7461985 42.4937005 19.8595224 42.5363875 19.9784362 42.5628128 20.1054809 42.5628128 20.2518364 42.5429939 20.4027654"></polygon>
                <polygon id="Fill-92" fill="#FFFFFF" points="42.1847787 22.4468127 42.1847787 22.4468127 42.5897971 20.4105406 42.5430447 20.4029179 42.1380263 22.43919"></polygon>
                <polygon id="Fill-94" fill="#FBB231" points="41.2279798 21.4361468 41.219849 21.4132788 41.2051118 21.393968 41.1781783 21.3822799 41.1385404 21.3711 41.0968697 21.3665264 41.0475764 21.3624609 40.9886276 21.3624609 40.9312035 21.3665264 40.8686975 21.374149 40.8082242 21.3822799 40.7467346 21.3904108 40.688294 21.3975253 40.6303617 21.4097215 40.580052 21.416836 40.5302505 21.4285242 40.4916289 21.4361468 40.4646954 21.4402123 40.4342047 21.4519004 40.3950749 21.4635885 40.3523879 21.4788339 40.3020782 21.5011937 40.2553258 21.5250781 40.2014588 21.5525198 40.1521655 21.5865677 40.1013476 21.6216321 40.0520543 21.6638109 40.0093673 21.7059897 39.9666803 21.7562994 39.9326323 21.8101664 39.9046825 21.8680987 39.8823226 21.9300965 39.8701263 21.9956516 39.8660609 22.1267617 39.8848635 22.2309383 39.9168787 22.3081815 39.9626148 22.3661139 40.020039 22.4047355 40.0866104 22.4276035 40.1521655 22.4392916 40.2177205 22.4428489 40.3325689 22.4392916 40.440811 22.4276035 40.5409222 22.4082927 40.6303617 22.3813592 40.7147193 22.3503603 40.7884052 22.3158042 40.8575175 22.2766744 40.9195153 22.2309383 40.9738905 22.1882513 41.0196266 22.1384498 41.0623136 22.0922056 41.0968697 22.0413877 41.1238032 21.9956516 41.1426058 21.9488992 41.1583593 21.9031631 41.1705556 21.8604761 41.1852928 21.7527422 41.2051118 21.6409429 41.219849 21.5327008"></polygon>
                <polygon id="Fill-96" fill="#FFFFFF" points="49.1742179 22.7716405 49.1823487 22.682201 49.2128395 22.5780244 49.2677228 22.4855359 49.3327696 22.4047355 49.41357 22.3391804 49.5055504 22.2929361 49.6061698 22.2614291 49.7139037 22.2502491 49.8231621 22.2614291 49.9227651 22.2929361 50.0157618 22.3391804 50.0960541 22.4047355 50.1616091 22.4855359 50.215476 22.5780244 50.2469831 22.682201 50.255114 22.7716405 50.1387411 22.7716405 50.1351838 22.7015118 50.1123158 22.616646 50.0736942 22.539911 50.0228763 22.4738478 49.9613867 22.4199808 49.8887171 22.3813592 49.8033431 22.3544258 49.7139037 22.3468031 49.6259887 22.3544258 49.5416311 22.3813592 49.4669288 22.4199808 49.4054392 22.4738478 49.3556377 22.539911 49.3170161 22.616646 49.294148 22.7015118 49.2865254 22.7716405"></polygon>
                <polygon id="Fill-98" fill="#FFFFFF" points="49.5216088 22.7716405 49.5216088 22.539911 49.7340275 22.539911 49.78078 22.5434682 49.823467 22.5510909 49.8529414 22.562779 49.8808912 22.5780244 49.8996938 22.6014006 49.914431 22.6247768 49.9225618 22.6512021 49.9266273 22.6786438 49.9225618 22.7131999 49.914431 22.7401334 49.9037592 22.7635096 49.8956284 22.7716405 49.7340275 22.7716405 49.7487647 22.7670669 49.7756982 22.7635096 49.7995826 22.755887 49.8194016 22.7482643 49.8341387 22.7365762 49.8422696 22.7243799 49.8498923 22.7060854 49.8498923 22.6786438 49.8453187 22.659333 49.8382042 22.6435795 49.8254997 22.6359568 49.8143198 22.6283341 49.7955172 22.6247768 49.7756982 22.6212196 49.7568956 22.6212196 49.7340275 22.6212196 49.6176546 22.6212196 49.6176546 22.7716405"></polygon>
                <polygon id="Fill-100" fill="#FFFFFF" points="49.1742179 22.7716405 49.1711688 22.7940004 49.1823487 22.9063078 49.2128395 23.0099763 49.2677228 23.102973 49.3327696 23.1802162 49.41357 23.245263 49.5055504 23.2960809 49.6061698 23.3265716 49.7139037 23.3382598 49.8231621 23.3265716 49.9227651 23.2960809 50.0157618 23.245263 50.0960541 23.1802162 50.1616091 23.102973 50.215476 23.0099763 50.2469831 22.9063078 50.2591794 22.7940004 50.255114 22.7716405 50.1387411 22.7716405 50.1428065 22.7940004 50.1351838 22.8869971 50.1123158 22.9718629 50.0736942 23.0455488 50.0228763 23.1100875 49.9613867 23.1644626 49.8887171 23.2066415 49.8033431 23.2340831 49.7139037 23.2417058 49.6259887 23.2340831 49.5416311 23.2066415 49.4669288 23.1644626 49.4054392 23.1100875 49.3556377 23.0455488 49.3170161 22.9718629 49.294148 22.8869971 49.2865254 22.7940004 49.2865254 22.7716405"></polygon>
                <polygon id="Fill-102" fill="#FFFFFF" points="49.5216088 22.7716405 49.5216088 23.0064191 49.6176546 23.0064191 49.6176546 22.8138193 49.7142086 22.8138193 49.8300733 23.0064191 49.9068083 23.0064191 49.7914517 22.8138193 49.8194016 22.8138193 49.8453187 22.8056885 49.8692031 22.7980658 49.889022 22.7828204 49.8956284 22.7716405 49.7340275 22.7716405 49.7142086 22.7751977 49.6176546 22.7751977 49.6176546 22.7716405"></polygon>
                <path d="M49.7141578,23.2416042 L49.7141578,23.2416042 L49.8035972,23.2339815 L49.8889712,23.2065398 L49.9611326,23.1648692 L50.0226222,23.1099859 L50.0734401,23.0454472 L50.1120617,22.9717613 L50.1349297,22.8868954 L50.1430606,22.7944069 L50.1349297,22.7019184 L50.1120617,22.6165443 L50.0734401,22.5398094 L50.0226222,22.4737461 L49.9611326,22.4198792 L49.8889712,22.3817658 L49.8035972,22.3543241 L49.7141578,22.3467015 L49.6257347,22.3543241 L49.541377,22.3817658 L49.4671829,22.4198792 L49.4056933,22.4737461 L49.3558918,22.5398094 L49.3172702,22.6165443 L49.2944021,22.7019184 L49.2862713,22.7944069 L49.2944021,22.8868954 L49.3172702,22.9717613 L49.3558918,23.0454472 L49.4056933,23.1099859 L49.4671829,23.1648692 L49.541377,23.2065398 L49.6257347,23.2339815 L49.7141578,23.2416042 M49.7141578,22.7750961 L49.7141578,22.7750961 L49.7487139,22.7669652 L49.7756474,22.763408 L49.7995318,22.7557853 L49.8193507,22.7481626 L49.8340879,22.7364745 L49.8422188,22.7242782 L49.8503496,22.7059838 L49.8503496,22.6785422 L49.8452679,22.6592314 L49.8381534,22.6434778 L49.8254489,22.6363633 L49.814269,22.6282325 L49.7954663,22.6246752 L49.7756474,22.621118 L49.7568448,22.621118 L49.7339767,22.621118 L49.618112,22.621118 L49.618112,22.7750961 L49.7141578,22.7750961 M49.618112,23.0068256 L49.521558,23.0068256 L49.521558,22.5398094 L49.7339767,22.5398094 L49.7807292,22.5433666 L49.8234162,22.5509893 L49.8528905,22.5626774 L49.8808404,22.5779228 L49.899643,22.601299 L49.9148883,22.6246752 L49.922511,22.6511005 L49.9265765,22.6785422 L49.922511,22.7130983 L49.9148883,22.7400318 L49.9037084,22.763408 L49.8889712,22.7827188 L49.8691523,22.7979641 L49.8452679,22.8055868 L49.8193507,22.8137177 L49.7914009,22.8137177 L49.9067575,23.0068256 L49.8305307,23.0068256 L49.7141578,22.8137177 L49.618112,22.8137177 L49.618112,23.0068256 M49.1714229,22.7944069 L49.1714229,22.7944069 L49.1820946,22.6820994 L49.2130935,22.5779228 L49.2674687,22.4854342 L49.3330237,22.4046338 L49.413316,22.339587 L49.5058045,22.2928345 L49.6059157,22.2613274 L49.7141578,22.2501475 L49.8234162,22.2613274 L49.922511,22.2928345 L50.0160159,22.339587 L50.0963081,22.4046338 L50.1618632,22.4854342 L50.215222,22.5779228 L50.2472372,22.6820994 L50.2589253,22.7944069 L50.2472372,22.9062062 L50.215222,23.0098747 L50.1618632,23.1028714 L50.0963081,23.1801145 L50.0160159,23.2451614 L49.922511,23.2959793 L49.8234162,23.32647 L49.7141578,23.3381581 L49.6059157,23.32647 L49.5058045,23.2959793 L49.413316,23.2451614 L49.3330237,23.1801145 L49.2674687,23.1028714 L49.2130935,23.0098747 L49.1820946,22.9062062 L49.1714229,22.7944069" id="Stroke-104" stroke="#FFFFFF" stroke-width="0.216"></path>
                <polygon id="Fill-106" fill="#FFFFFF" points="42.4507594 23.2993841 43.5387701 23.2993841 43.9285431 21.1045602 43.9437885 21.0202026 43.9661484 20.9348285 43.9900328 20.8499627 44.0210317 20.7650969 44.0596532 20.6807392 44.1053893 20.5994306 44.155699 20.5221874 44.2187132 20.4490097 44.2868091 20.3834546 44.3645605 20.3214568 44.4524754 20.2630163 44.5530948 20.2172802 44.6648941 20.1791668 44.7883815 20.1481679 44.9230489 20.1247917 45.0739779 20.1166608 45.1288612 20.1166608 45.1583356 20.1166608 45.1705319 20.1166608 45.3438208 19.1257123 45.2355788 19.133335 45.1314021 19.1455313 45.0353564 19.1643339 44.9428678 19.1912674 44.8574938 19.2217581 44.7772016 19.261396 44.6999584 19.3030667 44.6272889 19.349311 44.5571602 19.4036861 44.4916051 19.457553 44.4301155 19.5195508 44.3681177 19.5810405 44.3096772 19.6465955 44.2532693 19.7197732 44.1948288 19.7888855 44.1399455 19.8666369 44.2563184 19.1683993 43.1723732 19.1683993"></polygon>
                <polyline id="Stroke-108" stroke="#FFFFFF" stroke-width="0.216" points="42.4507594 23.2993841 43.5387701 23.2993841 43.9285431 21.1045602 43.9437885 21.0202026 43.9661484 20.9348285 43.9900328 20.8499627 44.0210317 20.7650969 44.0596532 20.6807392 44.1053893 20.5994306 44.155699 20.5221874 44.2187132 20.4490097 44.2868091 20.3834546 44.3645605 20.3214568 44.4524754 20.2630163 44.5530948 20.2172802 44.6648941 20.1791668 44.7883815 20.1481679 44.9230489 20.1247917 45.0739779 20.1166608 45.1288612 20.1166608 45.1583356 20.1166608 45.1705319 20.1166608 45.3438208 19.1257123 45.2355788 19.133335 45.1314021 19.1455313 45.0353564 19.1643339 44.9428678 19.1912674 44.8574938 19.2217581 44.7772016 19.261396 44.6999584 19.3030667 44.6272889 19.349311 44.5571602 19.4036861 44.4916051 19.457553 44.4301155 19.5195508 44.3681177 19.5810405 44.3096772 19.6465955 44.2532693 19.7197732 44.1948288 19.7888855 44.1399455 19.8666369 44.2563184 19.1683993 43.1723732 19.1683993 42.4507594 23.2993841"></polyline>
                <polygon id="Fill-110" fill="#FFFFFF" points="32.2365706 23.2993841 33.3245812 23.2993841 33.3433839 23.2993841 33.713338 21.1045602 33.7295997 21.0202026 33.7484023 20.938894 33.7682213 20.8575854 33.7946465 20.7803422 33.8256454 20.703099 33.864267 20.6299213 33.9100031 20.560809 33.9643782 20.495254 34.0258679 20.4368134 34.0954883 20.3793892 34.179846 20.3331449 34.2733509 20.2909661 34.381593 20.2553936 34.5005068 20.2254111 34.6316169 20.2055921 34.782546 20.1944122 34.7932177 20.1944122 34.8089713 20.1979694 34.828282 20.2020348 34.848101 20.2020348 34.86792 20.2055921 34.8826572 20.2096575 34.8938371 20.2137229 34.8973943 20.2137229 34.9024761 20.1979694 34.9136561 20.1517251 34.9283932 20.0826128 34.9482122 19.9972388 34.9751457 19.8971276 35.001571 19.7888855 35.0376517 19.6811517 35.0711915 19.5729096 35.1032067 19.4997319 35.1418283 19.4260459 35.1794335 19.3533764 35.2180551 19.2878213 35.2531194 19.2303971 35.2795447 19.1836447 35.2983474 19.1567112 35.3064782 19.1455313 35.3024128 19.1455313 35.2876756 19.1409577 35.2678566 19.1374004 35.2409232 19.133335 35.2139897 19.133335 35.183499 19.1297778 35.1565655 19.1257123 35.129632 19.1257123 35.0097018 19.133335 34.9024761 19.1455313 34.8013486 19.1643339 34.70886 19.1877101 34.6194206 19.2182009 34.5391284 19.2573306 34.4659506 19.295444 34.3963301 19.3411801 34.3307751 19.391998 34.2692855 19.4499303 34.2118613 19.5078627 34.1529125 19.5729096 34.0954883 19.6389728 34.0411132 19.7126587 33.983689 19.7888855 33.9257567 19.8666369 34.0649976 19.1683993 32.9581844 19.1683993"></polygon>
                <polyline id="Stroke-112" stroke="#FFFFFF" stroke-width="0.216" points="32.2365706 23.2993841 33.3245812 23.2993841 33.3433839 23.2993841 33.713338 21.1045602 33.7295997 21.0202026 33.7484023 20.938894 33.7682213 20.8575854 33.7946465 20.7803422 33.8256454 20.703099 33.864267 20.6299213 33.9100031 20.560809 33.9643782 20.495254 34.0258679 20.4368134 34.0954883 20.3793892 34.179846 20.3331449 34.2733509 20.2909661 34.381593 20.2553936 34.5005068 20.2254111 34.6316169 20.2055921 34.782546 20.1944122 34.7932177 20.1944122 34.8089713 20.1979694 34.828282 20.2020348 34.848101 20.2020348 34.86792 20.2055921 34.8826572 20.2096575 34.8938371 20.2137229 34.8973943 20.2137229 34.9024761 20.1979694 34.9136561 20.1517251 34.9283932 20.0826128 34.9482122 19.9972388 34.9751457 19.8971276 35.001571 19.7888855 35.0376517 19.6811517 35.0711915 19.5729096 35.1032067 19.4997319 35.1418283 19.4260459 35.1794335 19.3533764 35.2180551 19.2878213 35.2531194 19.2303971 35.2795447 19.1836447 35.2983474 19.1567112 35.3064782 19.1455313 35.3024128 19.1455313 35.2876756 19.1409577 35.2678566 19.1374004 35.2409232 19.133335 35.2139897 19.133335 35.183499 19.1297778 35.1565655 19.1257123 35.129632 19.1257123 35.0097018 19.133335 34.9024761 19.1455313 34.8013486 19.1643339 34.70886 19.1877101 34.6194206 19.2182009 34.5391284 19.2573306 34.4659506 19.295444 34.3963301 19.3411801 34.3307751 19.391998 34.2692855 19.4499303 34.2118613 19.5078627 34.1529125 19.5729096 34.0954883 19.6389728 34.0411132 19.7126587 33.983689 19.7888855 33.9257567 19.8666369 34.0649976 19.1683993 32.9581844 19.1683993 32.2365706 23.2993841"></polyline>
                <polygon id="Fill-114" fill="#FBB231" points="49.1821455 27.3576484 49.1821455 27.3418949 49.2131444 27.2417837 49.2675195 27.1533606 49.3330745 27.0761174 49.4133668 27.0146278 49.5058553 26.9678754 49.6059665 26.9414501 49.7142086 26.9292538 49.823467 26.9414501 49.9225618 26.9678754 50.0160667 27.0146278 50.096359 27.0761174 50.161914 27.1533606 50.2152728 27.2417837 50.247288 27.3418949 50.247288 27.3576484 50.1349805 27.3576484 50.1121125 27.2773562 50.0734909 27.2036703 50.022673 27.1376071 49.9611834 27.0837401 49.889022 27.0410531 49.803648 27.0146278 49.7142086 27.006497 49.6257855 27.0146278 49.5414278 27.0410531 49.4672337 27.0837401 49.4052359 27.1376071 49.3559426 27.2036703 49.317321 27.2773562 49.294453 27.3576484"></polygon>
                <polygon id="Fill-116" fill="#FBB231" points="49.5216088 27.3576484 49.5216088 27.2229811 49.7340275 27.2229811 49.78078 27.2229811 49.823467 27.2306038 49.8529414 27.2377183 49.8808912 27.2529636 49.8996938 27.2727826 49.914431 27.2961588 49.9225618 27.3230923 49.9266273 27.3576484 49.8498923 27.3576484 49.8498923 27.3383377 49.8453187 27.3190269 49.8382042 27.3037815 49.8254997 27.2961588 49.8143198 27.288028 49.7955172 27.2839625 49.7756982 27.2809135 49.7568956 27.2809135 49.7340275 27.2809135 49.6176546 27.2809135 49.6176546 27.3576484"></polygon>
                <polygon id="Fill-118" fill="#FBB231" points="49.1712704 27.4422602 49.1819422 27.3573944 49.2942497 27.3573944 49.2942497 27.3609516 49.286627 27.4422602"></polygon>
                <polygon id="Fill-120" fill="#FBB231" points="49.5216088 27.4422602 49.5216088 27.3573944 49.6176546 27.3573944 49.6176546 27.4346375 49.7142086 27.4346375 49.7487647 27.427523 49.7756982 27.4234576 49.7995826 27.4153267 49.8194016 27.4077041 49.8341387 27.3965241 49.8422696 27.3843278 49.8498923 27.3660334 49.8498923 27.3573944 49.9266273 27.3573944 49.9225618 27.3843278 49.914431 27.4077041 49.9037592 27.427523 49.889022 27.4422602"></polygon>
                <polygon id="Fill-122" fill="#FBB231" points="50.1429589 27.4422602 50.1348281 27.3609516 50.1348281 27.3573944 50.2471356 27.3573944 50.2593319 27.4422602"></polygon>
                <polygon id="Fill-124" fill="#FBB231" points="49.1712704 27.4422602 49.1712704 27.4539483 49.1819422 27.5657476 49.2129411 27.6699243 49.2673162 27.7624128 49.3328713 27.8437214 49.4136717 27.9092764 49.505652 27.9550125 49.6057632 27.9865196 49.7140053 27.9976995 49.8232637 27.9865196 49.9228667 27.9550125 50.0158635 27.9092764 50.0961557 27.8437214 50.1617107 27.7624128 50.2155777 27.6699243 50.2470848 27.5657476 50.2592811 27.4539483 50.2592811 27.4422602 50.1429081 27.4422602 50.1429081 27.4539483 50.1347773 27.546945 50.1124174 27.6313027 50.0732876 27.7044804 50.022978 27.7695273 49.9614883 27.8244106 49.8888188 27.8665894 49.8034448 27.8940311 49.7140053 27.9016538 49.6260904 27.8940311 49.5417327 27.8665894 49.4670304 27.8244106 49.4055408 27.7695273 49.3557393 27.7044804 49.3171177 27.6313027 49.2942497 27.546945 49.286627 27.4539483 49.286627 27.4422602"></polygon>
                <polygon id="Fill-126" fill="#FBB231" points="49.5216088 27.4422602 49.5216088 27.666367 49.6176546 27.666367 49.6176546 27.4732591 49.7142086 27.4732591 49.8300733 27.666367 49.9068083 27.666367 49.7914517 27.4732591 49.8194016 27.4732591 49.8453187 27.4656364 49.8692031 27.4580137 49.889022 27.4422602"></polygon>
                <path d="M31.3105674,20.7533071 L29.9013878,20.7533071 L29.9024042,20.750258 L29.9003714,20.7497499 L29.9100268,20.6958829 L29.9257804,20.6150825 L29.9486484,20.5378393 L29.9755819,20.4605962 L30.010138,20.3914839 L30.0462187,20.3254206 L30.0878894,20.2634228 L30.1346418,20.2054905 L30.1849515,20.1516235 L30.2337367,20.1058874 L30.2921772,20.0632004 L30.3496014,20.0281361 L30.4161728,19.9976454 L30.4817279,19.9747773 L30.5472829,19.9590238 L30.6158871,19.9473357 L30.6900812,19.9432702 L30.7586853,19.9514011 L30.8242403,19.9630892 L30.8867463,19.9788427 L30.9472196,20.0012026 L31.0056601,20.0322015 L31.0635925,20.0667577 L31.1139022,20.1058874 L31.1596383,20.1516235 L31.1982599,20.2054905 L31.2368815,20.2634228 L31.2638149,20.3294861 L31.2917648,20.403172 L31.3065019,20.4793988 L31.3146328,20.5647728 L31.3186982,20.6572613 L31.3105674,20.7533071 Z M32.355891,20.3980902 L32.3248921,20.1673771 L32.2715333,19.9630892 L32.193782,19.7857348 L32.0977362,19.6312485 L31.9813633,19.4996302 L31.8543186,19.3918963 L31.7155858,19.2994078 L31.5656731,19.2302955 L31.4106786,19.171855 L31.2521268,19.1332334 L31.0950996,19.1062999 L30.9365478,19.0910545 L30.7866351,19.0869891 L30.4741052,19.1027427 L30.1961315,19.1489869 L29.944583,19.2180992 L29.7214925,19.3151614 L29.5278765,19.4305179 L29.3581448,19.561628 L29.208232,19.7079835 L29.0842364,19.862978 L28.9770107,20.0245788 L28.8875713,20.1943105 L28.8194753,20.360485 L28.7605266,20.525643 L28.7178396,20.6882602 L28.6873489,20.8381729 L28.6644808,20.9809712 L28.6487273,21.1044586 L28.6299247,21.4205458 L28.6405964,21.7061422 L28.6832834,21.9648052 L28.7488385,22.1924692 L28.8423434,22.3967571 L28.9531263,22.5741114 L29.0842364,22.7326632 L29.2351655,22.8632651 L29.3967663,22.9755726 L29.5705635,23.0716184 L29.7524914,23.1458125 L29.9410257,23.2027285 L30.1346418,23.2494809 L30.3267334,23.2769226 L30.5193331,23.2962334 L30.7088838,23.2992824 L30.8359285,23.2992824 L30.9553505,23.2962334 L31.0595271,23.2962334 L31.1596383,23.2916598 L31.2490777,23.2840371 L31.32937,23.2769226 L31.4066131,23.2687917 L31.4762336,23.2571036 L31.5417887,23.2449073 L31.6032783,23.2306783 L31.6657843,23.2108594 L31.7232085,23.1920567 L31.7811409,23.1681723 L31.8426305,23.1458125 L31.9051365,23.1143054 L31.9666261,23.0838147 L32.1216206,22.1345368 L32.0082967,22.2000919 L31.901071,22.2615815 L31.7887635,22.308334 L31.6810297,22.3505128 L31.5763448,22.3850689 L31.4691191,22.407937 L31.3639261,22.427756 L31.2597495,22.4430013 L31.1565892,22.4511322 L31.0554617,22.4546894 L30.951285,22.4546894 L30.8521902,22.4511322 L30.7505544,22.4430013 L30.6504432,22.4318214 L30.5554138,22.4196251 L30.4537781,22.4048879 L30.3765349,22.3891344 L30.3003081,22.3622009 L30.2215404,22.3276448 L30.1534444,22.2849577 L30.083824,22.2387135 L30.0223343,22.1817975 L29.9649101,22.1233569 L29.9100268,22.0572937 L29.8632744,21.9922468 L29.8216037,21.9190691 L29.791113,21.8489404 L29.7631632,21.7757627 L29.7474097,21.7020768 L29.7413115,21.6283908 L29.7443606,21.5638521 L29.7535078,21.5135425 L32.2552716,21.5135425 L32.2750906,21.2782557 L32.3330229,20.9540377 L32.3594482,20.6603104 L32.355891,20.3980902 Z" id="Fill-128" fill="#FFFFFF"></path>
            </g>
        </g>
    </g>
</svg>
