<?xml version="1.0" encoding="UTF-8"?>
<svg width="64px" height="41px" viewBox="0 0 64 41" version="1.1" xmlns="http://www.w3.org/2000/svg" xmlns:xlink="http://www.w3.org/1999/xlink">
    <defs>
        <polygon id="path-1" points="63.7407033 40.1461182 0 40.1461182 0 0.308616931 63.7407033 0.308616931"></polygon>
    </defs>
    <g id="Symbols" stroke="none" stroke-width="1" fill="none" fill-rule="evenodd">
        <g id="Payment-Form_1440" transform="translate(-1.000000, -54.000000)">
            <g id="Page-1" transform="translate(1.000000, 54.000000)">
                <g id="Group-3" transform="translate(0.000000, 0.199765)">
                    <mask id="mask-2" fill="white">
                        <use xlink:href="#path-1"></use>
                    </mask>
                    <g id="Clip-2"></g>
                    <path d="M63.7407033,38.0220836 C63.7407033,39.1954682 62.7888845,40.1462706 61.6154999,40.1462706 L2.12403456,40.1462706 C0.950649915,40.1462706 -0.000152453613,39.1954682 -0.000152453613,38.0220836 L-0.000152453613,2.4338203 C-0.000152453613,1.2594193 0.950649915,0.308616931 2.12403456,0.308616931 L61.6154999,0.308616931 C62.7888845,0.308616931 63.7407033,1.2594193 63.7407033,2.4338203 L63.7407033,38.0220836 Z" id="Fill-1" fill="#3957A7" mask="url(#mask-2)"></path>
                </g>
                <polygon id="Fill-4" fill="#FFFFFF" points="29.3324309 26.4111656 26.21882 26.4111656 28.1651444 14.4511796 31.2787554 14.4511796"></polygon>
                <path d="M23.5995652,14.4513321 L20.6307852,22.6772209 L20.2796337,20.9062181 L20.2796337,20.9067263 L19.2322774,15.5281628 C19.2322774,15.5281628 19.1052327,14.4513321 17.7555101,14.4513321 L12.8475201,14.4513321 L12.7906041,14.6540954 C12.7906041,14.6540954 14.291764,14.9656089 16.0475214,16.0210961 L18.7520485,26.4113181 L21.9967696,26.4113181 L26.951512,14.4513321 L23.5995652,14.4513321 Z" id="Fill-6" fill="#FFFFFF"></path>
                <path d="M44.6651482,22.1809844 L46.3009754,17.7044381 L47.2217953,22.1809844 L44.6651482,22.1809844 Z M48.091289,26.411064 L50.9497943,26.411064 L48.4576859,14.4515862 L45.9543976,14.4515862 C44.798291,14.4515862 44.5162518,15.3424235 44.5162518,15.3424235 L39.8730229,26.411064 L43.1187604,26.411064 L43.7666882,24.6349794 L47.7259085,24.6349794 L48.091289,26.411064 Z" id="Fill-8" fill="#FFFFFF"></path>
                <path d="M40.1163389,17.3272171 L40.5599789,14.7588818 C40.5599789,14.7588818 39.1894209,14.2374905 37.7599142,14.2374905 C36.2145427,14.2374905 32.5454925,14.9133682 32.5454925,18.1967108 C32.5454925,21.2869456 36.8528152,21.3255672 36.8528152,22.9476736 C36.8528152,24.56978 32.9891325,24.2801182 31.7146203,23.2566463 L31.2511613,25.9413544 C31.2511613,25.9413544 32.6415382,26.6172321 34.7657252,26.6172321 C36.8904204,26.6172321 40.0965199,25.516517 40.0965199,22.5228362 C40.0965199,19.4132907 35.7510838,19.1231206 35.7510838,17.7718734 C35.7510838,16.4191017 38.7844025,16.5928988 40.1163389,17.3272171" id="Fill-10" fill="#FFFFFF"></path>
                <path d="M20.2795321,20.9065738 L19.2321758,15.5285185 C19.2321758,15.5285185 19.1051311,14.4511796 17.7554084,14.4511796 L12.8474184,14.4511796 L12.7910106,14.6539429 C12.7910106,14.6539429 15.1489598,15.1428109 17.4108633,16.9737788 C19.5736719,18.7249626 20.2795321,20.9065738 20.2795321,20.9065738" id="Fill-12" fill="#F9A533"></path>
            </g>
        </g>
    </g>
</svg>
